<svg width="27" height="19" viewBox="0 0 27 19" fill="none" xmlns="http://www.w3.org/2000/svg">
<path d="M0.68 18C0.68 16.944 0.832 15.984 1.136 15.12C1.44 14.24 1.88 13.472 2.456 12.816C3.032 12.16 3.608 11.608 4.184 11.16C4.76 10.712 5.448 10.256 6.248 9.792C6.984 9.344 7.56 8.968 7.976 8.664C8.392 8.344 8.776 7.92 9.128 7.392C9.496 6.864 9.68 6.304 9.68 5.712C9.68 4.896 9.376 4.216 8.768 3.672C8.176 3.128 7.384 2.856 6.392 2.856C4.536 2.856 3.344 3.68 2.816 5.328L0.944 4.488C1.28 3.432 1.944 2.576 2.936 1.92C3.928 1.248 5.104 0.912 6.464 0.912C8.128 0.912 9.44 1.36 10.4 2.256C11.36 3.136 11.84 4.304 11.84 5.76C11.84 6.336 11.752 6.872 11.576 7.368C11.4 7.864 11.184 8.288 10.928 8.64C10.688 8.992 10.336 9.36 9.872 9.744C9.408 10.128 8.992 10.44 8.624 10.68C8.272 10.904 7.792 11.2 7.184 11.568C6 12.256 5.064 12.936 4.376 13.608C3.704 14.28 3.28 15.064 3.104 15.96H11.984V18H0.68ZM20.6793 18.288C17.8473 18.288 15.9353 16.984 14.9433 14.376L16.8873 13.584C17.6393 15.392 18.9033 16.296 20.6793 16.296C21.7353 16.296 22.5993 16.04 23.2713 15.528C23.9433 15.016 24.2793 14.272 24.2793 13.296C24.2793 12.368 23.9833 11.632 23.3913 11.088C22.7993 10.528 21.9353 10.248 20.7993 10.248H19.5993V8.28H20.6793C21.5593 8.28 22.2713 8.04 22.8153 7.56C23.3593 7.064 23.6313 6.416 23.6313 5.616C23.6313 4.784 23.3593 4.12 22.8153 3.624C22.2873 3.128 21.5993 2.88 20.7513 2.88C19.2313 2.88 18.1193 3.632 17.4153 5.136L15.4713 4.392C15.8713 3.368 16.5193 2.536 17.4153 1.896C18.3273 1.24 19.4393 0.912 20.7513 0.912C22.2073 0.912 23.4153 1.336 24.3753 2.184C25.3353 3.032 25.8153 4.096 25.8153 5.376C25.8153 6.144 25.6233 6.856 25.2393 7.512C24.8713 8.168 24.3433 8.672 23.6553 9.024C24.5353 9.376 25.2233 9.912 25.7193 10.632C26.2153 11.352 26.4633 12.216 26.4633 13.224C26.4633 14.744 25.9113 15.968 24.8073 16.896C23.7033 17.824 22.3273 18.288 20.6793 18.288Z" fill="#1791A0"/>
</svg>
