<svg width="99" height="18" viewBox="0 0 99 18" fill="none" xmlns="http://www.w3.org/2000/svg">
<path d="M96.6594 4.84616C96.4062 2.3656 94.4187 0.432617 92 0.432617C90.4 0.432617 88.9906 1.27706 88.1438 2.56682C87.8844 2.45467 87.6 2.39199 87.3031 2.39199C86.0812 2.39199 85.0906 3.52671 85.0719 4.81317C83.825 5.2321 83 6.51855 83 7.87099C83 9.52689 84.2719 10.9882 85.8406 10.9882H90.5938V6.33713C90.5938 6.09963 90.775 5.90831 91 5.90831C91.225 5.90831 91.4062 6.09963 91.4062 6.33713V10.9882H96.1594C97.7281 10.9882 99 9.52689 99 7.87099C99 6.39651 97.9906 5.09685 96.6594 4.84616ZM90.5938 13.7557L89.0969 12.1988C88.9375 12.0338 88.6813 12.0338 88.5219 12.2021C88.3656 12.3703 88.3656 12.6408 88.525 12.809L90.7125 15.085C90.7906 15.1642 90.8937 15.2071 90.9969 15.2071C91.05 15.2071 91.1031 15.1972 91.1531 15.1741C91.2 15.1543 91.2437 15.1213 91.2812 15.085L93.4688 12.809C93.6281 12.6441 93.6313 12.3703 93.4719 12.2021C93.3156 12.0338 93.0563 12.0305 92.8969 12.1988L91.4062 13.7557V10.9882H90.5938V13.7557Z" fill="#0AA6BD"/>
<path d="M1.568 2.39326H4.624C5.54133 2.39326 6.34667 2.55326 7.04 2.87326C7.73333 3.19326 8.27733 3.62526 8.672 4.16926C9.06667 4.71326 9.35467 5.30526 9.536 5.94526C9.728 6.58526 9.824 7.26793 9.824 7.99326C9.824 8.68659 9.73333 9.34793 9.552 9.97726C9.38133 10.5959 9.104 11.1879 8.72 11.7533C8.34667 12.3079 7.80267 12.7559 7.088 13.0973C6.37333 13.4279 5.53067 13.5933 4.56 13.5933H1.568V2.39326ZM4.736 12.2973C5.39733 12.2973 5.97333 12.1746 6.464 11.9293C6.96533 11.6733 7.34933 11.3319 7.616 10.9053C7.88267 10.4679 8.07467 10.0093 8.192 9.52926C8.32 9.04926 8.384 8.53726 8.384 7.99326C8.384 7.22526 8.272 6.52659 8.048 5.89726C7.824 5.26793 7.44 4.73993 6.896 4.31326C6.352 3.88659 5.69067 3.67326 4.912 3.67326H2.96V12.2973H4.736ZM18.0103 12.6493C17.3596 13.4066 16.4796 13.7853 15.3703 13.7853C14.2609 13.7853 13.3809 13.4066 12.7303 12.6493C12.0796 11.8919 11.7543 10.8466 11.7543 9.51326C11.7543 8.17993 12.0796 7.13459 12.7303 6.37726C13.3809 5.60926 14.2609 5.22526 15.3703 5.22526C16.4796 5.22526 17.3596 5.60393 18.0103 6.36126C18.6609 7.11859 18.9862 8.16393 18.9862 9.49726C18.9862 10.8306 18.6609 11.8813 18.0103 12.6493ZM13.7383 11.7053C14.1329 12.2279 14.6769 12.4893 15.3703 12.4893C16.0636 12.4893 16.6023 12.2279 16.9863 11.7053C17.3809 11.1719 17.5783 10.4359 17.5783 9.49726C17.5783 8.56926 17.3809 7.83859 16.9863 7.30526C16.6023 6.77193 16.0636 6.50526 15.3703 6.50526C14.6769 6.50526 14.1329 6.77193 13.7383 7.30526C13.3543 7.82793 13.1623 8.56393 13.1623 9.51326C13.1623 10.4413 13.3543 11.1719 13.7383 11.7053ZM22.5321 13.5933L20.4361 5.41726H21.8121L23.0601 10.9053C23.0708 10.9693 23.0975 11.1026 23.1401 11.3053C23.1828 11.5079 23.2148 11.6626 23.2361 11.7693C23.2575 11.6199 23.3268 11.3319 23.4441 10.9053L24.9801 5.41726H26.1321L27.6681 10.9053L27.8921 11.8013C27.9135 11.7053 27.9401 11.5559 27.9721 11.3533C28.0148 11.1506 28.0468 11.0013 28.0681 10.9053L29.3001 5.41726H30.6761L28.5801 13.5933H27.3321L25.8441 8.74526C25.6948 8.26526 25.5935 7.90793 25.5401 7.67326C25.4335 8.12126 25.3375 8.47859 25.2521 8.74526L23.7801 13.5933H22.5321ZM37.6336 13.5933V8.64926C37.6336 7.91326 37.4736 7.37459 37.1536 7.03326C36.8443 6.68126 36.4176 6.50526 35.8736 6.50526C34.615 6.50526 33.9856 7.20926 33.9856 8.61726V13.5933H32.5936V5.41726H33.9856V6.24926C34.487 5.56659 35.191 5.22526 36.0976 5.22526C37.0576 5.22526 37.783 5.51859 38.2736 6.10526C38.775 6.68126 39.0256 7.60926 39.0256 8.88926V13.5933H37.6336ZM41.6893 13.5933V2.69726L43.0813 2.04126V13.5933H41.6893ZM51.5728 12.6493C50.9221 13.4066 50.0421 13.7853 48.9328 13.7853C47.8234 13.7853 46.9434 13.4066 46.2928 12.6493C45.6421 11.8919 45.3168 10.8466 45.3168 9.51326C45.3168 8.17993 45.6421 7.13459 46.2928 6.37726C46.9434 5.60926 47.8234 5.22526 48.9328 5.22526C50.0421 5.22526 50.9221 5.60393 51.5728 6.36126C52.2234 7.11859 52.5487 8.16393 52.5487 9.49726C52.5487 10.8306 52.2234 11.8813 51.5728 12.6493ZM47.3008 11.7053C47.6954 12.2279 48.2394 12.4893 48.9328 12.4893C49.6261 12.4893 50.1648 12.2279 50.5488 11.7053C50.9434 11.1719 51.1408 10.4359 51.1408 9.49726C51.1408 8.56926 50.9434 7.83859 50.5488 7.30526C50.1648 6.77193 49.6261 6.50526 48.9328 6.50526C48.2394 6.50526 47.6954 6.77193 47.3008 7.30526C46.9168 7.82793 46.7248 8.56393 46.7248 9.51326C46.7248 10.4413 46.9168 11.1719 47.3008 11.7053ZM59.4066 13.5933V12.8413C58.7346 13.4706 57.9613 13.7853 57.0866 13.7853C56.2226 13.7853 55.5293 13.5506 55.0066 13.0813C54.4946 12.6013 54.2386 11.9186 54.2386 11.0333C54.2386 10.1479 54.532 9.47593 55.1186 9.01726C55.7053 8.55859 56.4306 8.32926 57.2946 8.32926C58.084 8.32926 58.788 8.50526 59.4066 8.85726V8.28126C59.4066 7.59859 59.252 7.12393 58.9426 6.85726C58.644 6.57993 58.2066 6.44126 57.6306 6.44126C56.8093 6.44126 56.0146 6.71326 55.2466 7.25726L54.8466 6.08926C55.7213 5.51326 56.708 5.22526 57.8066 5.22526C59.748 5.22526 60.7186 6.20659 60.7186 8.16926V13.5933H59.4066ZM57.2946 12.5533C58.0946 12.5533 58.7986 12.1959 59.4066 11.4813V10.0733C58.82 9.71059 58.18 9.52926 57.4866 9.52926C56.9213 9.52926 56.4573 9.65726 56.0946 9.91326C55.732 10.1693 55.5506 10.5426 55.5506 11.0333C55.5506 11.4919 55.7 11.8599 55.9986 12.1373C56.308 12.4146 56.74 12.5533 57.2946 12.5533ZM66.0365 13.7853C65.0018 13.7853 64.1805 13.4013 63.5725 12.6333C62.9645 11.8653 62.6605 10.8199 62.6605 9.49726C62.6605 8.16393 62.9645 7.11859 63.5725 6.36126C64.1912 5.60393 65.0125 5.22526 66.0365 5.22526C66.8365 5.22526 67.5245 5.48126 68.1005 5.99326V2.69726L69.4925 2.04126V13.5933H68.1005V12.9533C67.5672 13.5079 66.8792 13.7853 66.0365 13.7853ZM66.2285 12.4893C67.0392 12.4893 67.6632 12.1213 68.1005 11.3853V7.54526C67.6632 6.85193 67.0392 6.50526 66.2285 6.50526C65.5352 6.50526 65.0018 6.76659 64.6285 7.28926C64.2552 7.80126 64.0685 8.53726 64.0685 9.49726C64.0685 10.3613 64.2605 11.0759 64.6445 11.6413C65.0392 12.2066 65.5672 12.4893 66.2285 12.4893Z" fill="#1791A0"/>
</svg>
