<svg width="16" height="16" viewBox="0 0 16 16" fill="none" xmlns="http://www.w3.org/2000/svg">
<path d="M14.8384 5.16307C14.8048 4.43027 14.688 3.93107 14.5184 3.49267C14.3424 3.03987 14.1072 2.65587 13.7248 2.27347C13.3424 1.89107 12.9584 1.65587 12.5056 1.47987C12.0672 1.31027 11.568 1.19347 10.8352 1.15987C10.1024 1.12787 9.8688 1.11987 7.99999 1.11987C6.1312 1.11987 5.89759 1.12787 5.1632 1.16147C4.4304 1.19507 3.9312 1.31187 3.49279 1.48147C3.04 1.65747 2.656 1.89267 2.2736 2.27507C1.8912 2.65747 1.656 3.04147 1.48 3.49427C1.3104 3.93267 1.1936 4.43187 1.16 5.16467C1.128 5.89747 1.12 6.13107 1.12 7.99987C1.12 9.86867 1.128 10.1023 1.1616 10.8367C1.1952 11.5695 1.312 12.0687 1.4816 12.5071C1.6576 12.9599 1.8928 13.3439 2.2752 13.7263C2.6576 14.1087 3.0416 14.3439 3.4944 14.5199C3.9328 14.6895 4.43199 14.8063 5.16479 14.8399C5.89759 14.8719 6.1312 14.8799 7.99999 14.8799C9.8688 14.8799 10.1024 14.8719 10.8368 14.8383C11.5696 14.8047 12.0688 14.6879 12.5072 14.5183C12.96 14.3423 13.344 14.1071 13.7264 13.7247C14.1088 13.3423 14.344 12.9583 14.52 12.5055C14.6896 12.0671 14.8064 11.5679 14.84 10.8351C14.872 10.1023 14.88 9.86867 14.88 7.99987C14.88 6.13107 14.872 5.89747 14.8384 5.16307ZM13.6 10.7807C13.5696 11.4511 13.4576 11.8159 13.3632 12.0575C13.2384 12.3791 13.0896 12.6079 12.848 12.8479C12.608 13.0879 12.3776 13.2383 12.0576 13.3631C11.8144 13.4575 11.4512 13.5695 10.7808 13.5999C10.056 13.6335 9.8384 13.6399 7.99999 13.6399C6.16159 13.6399 5.94559 13.6335 5.21919 13.5999C4.54879 13.5695 4.184 13.4575 3.94239 13.3631C3.6208 13.2383 3.392 13.0895 3.152 12.8479C2.912 12.6079 2.7616 12.3775 2.6368 12.0575C2.54239 11.8143 2.4304 11.4511 2.4 10.7807C2.3664 10.0559 2.36 9.83827 2.36 7.99987C2.36 6.16147 2.3664 5.94547 2.4 5.21907C2.4304 4.54867 2.54239 4.18387 2.6368 3.94227C2.7616 3.62067 2.9104 3.39187 3.152 3.15187C3.392 2.91187 3.6224 2.76147 3.94239 2.63667C4.1856 2.54227 4.54879 2.43027 5.21919 2.39987C5.94399 2.36627 6.16159 2.35987 7.99999 2.35987C9.8384 2.35987 10.0544 2.36627 10.7808 2.39987C11.4512 2.43027 11.816 2.54227 12.0576 2.63667C12.3792 2.76147 12.608 2.91027 12.848 3.15187C13.088 3.39187 13.2384 3.62227 13.3632 3.94227C13.4576 4.18547 13.5696 4.54867 13.6 5.21907C13.6336 5.94387 13.64 6.16147 13.64 7.99987C13.64 9.83827 13.6336 10.0543 13.6 10.7807Z" fill="#0AA6BD"/>
<path d="M8.00002 4.46716C6.04802 4.46716 4.46722 6.04956 4.46722 7.99996C4.46722 9.95196 6.04962 11.5328 8.00002 11.5328C9.95042 11.5328 11.5328 9.95196 11.5328 7.99996C11.5328 6.04796 9.95202 4.46716 8.00002 4.46716ZM8.00002 10.2928C6.73282 10.2928 5.70722 9.26556 5.70722 7.99996C5.70722 6.73436 6.73282 5.70716 8.00002 5.70716C9.26722 5.70716 10.2928 6.73276 10.2928 7.99996C10.2928 9.26716 9.26722 10.2928 8.00002 10.2928Z" fill="#0AA6BD"/>
<path d="M11.8614 5.13073C12.3052 5.02595 12.58 4.58128 12.4752 4.13753C12.3704 3.69378 11.9257 3.419 11.482 3.52378C11.0383 3.62856 10.7635 4.07323 10.8683 4.51698C10.973 4.96072 11.4177 5.23551 11.8614 5.13073Z" fill="#0AA6BD"/>
</svg>
