<svg width="16" height="16" viewBox="0 0 16 16" fill="none" xmlns="http://www.w3.org/2000/svg">
<path d="M13.4528 1.59998H2.54398C2.02238 1.59998 1.59998 2.01278 1.59998 2.52318V13.4768C1.59998 13.9872 2.02398 14.4 2.54398 14.4H13.4528C13.9744 14.4 14.4 13.9856 14.4 13.4768V2.52318C14.4 2.01278 13.9744 1.59998 13.4528 1.59998ZM5.39678 12.5072H3.49598V6.39838H5.39678V12.5072ZM4.44798 5.56318C3.83838 5.56318 3.34718 5.07038 3.34718 4.46238C3.34718 3.85438 3.83838 3.36158 4.44798 3.36158C5.05598 3.36158 5.54878 3.85438 5.54878 4.46238C5.54718 5.07038 5.05438 5.56318 4.44798 5.56318ZM12.5072 12.5072H10.6096V9.53597C10.6096 8.82718 10.5968 7.91678 9.62238 7.91678C8.63518 7.91678 8.48318 8.68958 8.48318 9.48638V12.5072H6.58718V6.39838H8.40638V7.23358H8.43198C8.68478 6.75358 9.30398 6.24638 10.2288 6.24638C12.1504 6.24638 12.5056 7.51198 12.5056 9.15678V12.5072H12.5072Z" fill="#0AA6BD"/>
</svg>
