<svg width="26" height="27" viewBox="0 0 26 27" fill="none" xmlns="http://www.w3.org/2000/svg">
<path d="M21.1859 3.75513H4.91563C4.02695 3.75513 3.25 4.39497 3.25 5.27349V21.5793C3.25 22.4629 4.02695 23.25 4.91563 23.25H21.1809C22.0746 23.25 22.7449 22.4579 22.7449 21.5793V5.27349C22.75 4.39497 22.0746 3.75513 21.1859 3.75513ZM9.29297 20.0051H6.5V11.3215H9.29297V20.0051ZM7.99297 10.0012H7.97266C7.07891 10.0012 6.5 9.33599 6.5 8.50317C6.5 7.65513 7.09414 7.00513 8.0082 7.00513C8.92227 7.00513 9.48086 7.65005 9.50117 8.50317C9.50117 9.33599 8.92227 10.0012 7.99297 10.0012ZM19.5 20.0051H16.707V15.2571C16.707 14.1196 16.3008 13.3426 15.2902 13.3426C14.5184 13.3426 14.0613 13.8657 13.8582 14.3735C13.782 14.5563 13.7617 14.8051 13.7617 15.059V20.0051H10.9688V11.3215H13.7617V12.5301C14.168 11.9512 14.8027 11.1184 16.2805 11.1184C18.1137 11.1184 19.5 12.327 19.5 14.9321V20.0051Z" fill="white"/>
</svg>
