<svg width="26" height="27" viewBox="0 0 26 27" fill="none" xmlns="http://www.w3.org/2000/svg">
<path d="M24.9844 6.06055C24.1008 6.45156 23.1562 6.71563 22.1609 6.8375C23.1766 6.22813 23.9586 5.26328 24.3242 4.11562C23.3746 4.6793 22.3234 5.09062 21.2012 5.30898C20.3023 4.34922 19.0226 3.75 17.6109 3.75C14.8941 3.75 12.6953 5.95391 12.6953 8.6707C12.6953 9.05664 12.7359 9.43242 12.8223 9.79297C8.73436 9.58984 5.10858 7.62969 2.68632 4.64883C2.26483 5.375 2.02108 6.22305 2.02108 7.12187C2.02108 8.82812 2.89452 10.3363 4.21483 11.2199C3.40233 11.1996 2.64061 10.9762 1.98046 10.6055V10.6664C1.98046 13.0531 3.67655 15.0387 5.92616 15.4906C5.51483 15.6023 5.07811 15.6633 4.63124 15.6633C4.31639 15.6633 4.00663 15.6328 3.70702 15.5719C4.33163 17.527 6.1496 18.9488 8.30272 18.9895C6.62186 20.3098 4.49921 21.0969 2.19374 21.0969C1.79764 21.0969 1.40663 21.0715 1.02069 21.0258C3.18905 22.4375 5.77382 23.25 8.54647 23.25C17.6008 23.25 22.5469 15.7496 22.5469 9.24453C22.5469 9.03125 22.5418 8.81797 22.5316 8.60977C23.4914 7.91406 24.3242 7.05078 24.9844 6.06055Z" fill="white"/>
</svg>
