<svg width="115" height="18" viewBox="0 0 115 18" fill="none" xmlns="http://www.w3.org/2000/svg">
<path d="M25.568 13V1.8H29.984C31.2213 1.8 32.1173 2.104 32.672 2.712C33.2373 3.32 33.52 4.07733 33.52 4.984C33.52 5.72 33.3013 6.38133 32.864 6.968C32.4373 7.544 31.7867 7.92267 30.912 8.104L33.312 13H31.744L29.44 8.2H26.96V13H25.568ZM26.96 6.904H30.016C30.7413 6.904 31.2693 6.72267 31.6 6.36C31.9413 5.99733 32.112 5.54933 32.112 5.016C32.112 4.504 31.9467 4.056 31.616 3.672C31.296 3.288 30.7627 3.096 30.016 3.096H26.96V6.904ZM36.2086 13V1.8H42.8646V3.112H37.6006V6.552H41.0726V7.864H37.6006V11.672H43.2166V13H36.2086ZM52.8428 13L51.8828 10.264H47.4348L46.4908 13H45.0348L49.0028 1.8H50.2988L54.2668 13H52.8428ZM51.4508 9.032L50.0108 4.888C49.8294 4.36533 49.7121 3.98667 49.6588 3.752C49.5414 4.168 49.4241 4.54667 49.3068 4.888L47.8508 9.032H51.4508ZM56.3336 1.8H59.3896C60.307 1.8 61.1123 1.96 61.8056 2.28C62.499 2.6 63.043 3.032 63.4376 3.576C63.8323 4.12 64.1203 4.712 64.3016 5.352C64.4936 5.992 64.5896 6.67467 64.5896 7.4C64.5896 8.09333 64.499 8.75467 64.3176 9.384C64.147 10.0027 63.8696 10.5947 63.4856 11.16C63.1123 11.7147 62.5683 12.1627 61.8536 12.504C61.139 12.8347 60.2963 13 59.3256 13H56.3336V1.8ZM59.5016 11.704C60.163 11.704 60.739 11.5813 61.2296 11.336C61.731 11.08 62.115 10.7387 62.3816 10.312C62.6483 9.87467 62.8403 9.416 62.9576 8.936C63.0856 8.456 63.1496 7.944 63.1496 7.4C63.1496 6.632 63.0376 5.93333 62.8136 5.304C62.5896 4.67467 62.2056 4.14667 61.6616 3.72C61.1176 3.29333 60.4563 3.08 59.6776 3.08H57.7256V11.704H59.5016ZM80.7335 13H79.3415V6.12C79.3415 5.68267 79.3522 5.272 79.3735 4.888C79.2668 5.18667 79.1015 5.608 78.8775 6.152L75.8055 13.192L72.8295 6.12C72.5735 5.50133 72.4135 5.096 72.3495 4.904C72.3815 5.192 72.3975 5.59733 72.3975 6.12V13H71.0055V1.8H72.3175L75.5655 9.336L75.8535 10.088C75.8962 9.96 75.9922 9.70933 76.1415 9.336L79.4055 1.8H80.7335V13ZM88.1213 13.192C87.2786 13.192 86.5373 13.0267 85.8973 12.696C85.2679 12.3547 84.7719 11.9013 84.4093 11.336C84.0573 10.76 83.7959 10.1467 83.6253 9.496C83.4546 8.83467 83.3693 8.136 83.3693 7.4C83.3693 6.664 83.4546 5.97067 83.6253 5.32C83.7959 4.65867 84.0573 4.04533 84.4093 3.48C84.7719 2.904 85.2679 2.45067 85.8973 2.12C86.5373 1.77867 87.2786 1.608 88.1213 1.608C88.8039 1.608 89.4173 1.72 89.9613 1.944C90.5159 2.168 90.9693 2.46667 91.3212 2.84C91.6839 3.21333 91.9826 3.656 92.2173 4.168C92.4626 4.68 92.6333 5.20267 92.7293 5.736C92.8359 6.26933 92.8893 6.824 92.8893 7.4C92.8893 7.976 92.8359 8.53067 92.7293 9.064C92.6333 9.59733 92.4626 10.12 92.2173 10.632C91.9826 11.144 91.6839 11.5867 91.3212 11.96C90.9693 12.3333 90.5159 12.632 89.9613 12.856C89.4173 13.08 88.8039 13.192 88.1213 13.192ZM86.5693 11.496C87.0173 11.752 87.5346 11.88 88.1213 11.88C88.7079 11.88 89.2253 11.7467 89.6733 11.48C90.1213 11.2027 90.4679 10.84 90.7133 10.392C90.9586 9.944 91.1399 9.46933 91.2573 8.968C91.3746 8.456 91.4333 7.93333 91.4333 7.4C91.4333 6.61067 91.3319 5.896 91.1293 5.256C90.9373 4.60533 90.5799 4.05067 90.0573 3.592C89.5453 3.13333 88.8999 2.904 88.1213 2.904C87.5346 2.904 87.0173 3.04267 86.5693 3.32C86.1319 3.58667 85.7906 3.94933 85.5453 4.408C85.2999 4.856 85.1133 5.33067 84.9853 5.832C84.8679 6.33333 84.8093 6.856 84.8093 7.4C84.8093 7.976 84.8679 8.52 84.9853 9.032C85.1026 9.544 85.2839 10.0187 85.5293 10.456C85.7853 10.8933 86.1319 11.24 86.5693 11.496ZM95.5368 13V1.8H99.9528C101.19 1.8 102.086 2.104 102.641 2.712C103.206 3.32 103.489 4.07733 103.489 4.984C103.489 5.72 103.27 6.38133 102.833 6.968C102.406 7.544 101.755 7.92267 100.881 8.104L103.281 13H101.713L99.4088 8.2H96.9288V13H95.5368ZM96.9288 6.904H99.9848C100.71 6.904 101.238 6.72267 101.569 6.36C101.91 5.99733 102.081 5.54933 102.081 5.016C102.081 4.504 101.915 4.056 101.585 3.672C101.265 3.288 100.731 3.096 99.9848 3.096H96.9288V6.904ZM106.177 13V1.8H112.833V3.112H107.569V6.552H111.041V7.864H107.569V11.672H113.185V13H106.177Z" fill="black"/>
<path d="M6.35547 3.89063C6.64844 3.59766 7.12891 3.59766 7.42187 3.89063L11.1484 7.62891C11.4336 7.91406 11.4414 8.375 11.1719 8.66797L7.5 12.3516C7.35156 12.5 7.16016 12.5742 6.96484 12.5742C6.77344 12.5742 6.57812 12.5 6.43359 12.3555C6.14062 12.0625 6.13672 11.5859 6.43359 11.2891L9.55469 8.12109L6.35547 4.95313C6.05859 4.66406 6.05859 4.1875 6.35547 3.89063Z" fill="#0AA6BD"/>
<path d="M0 8C0 12.4192 3.58077 16 8 16C12.4192 16 16 12.4192 16 8C16 3.58077 12.4192 0 8 0C3.58077 0 0 3.58077 0 8ZM1.23077 8C1.23077 6.19231 1.93462 4.49231 3.21538 3.21538C4.49231 1.93462 6.19231 1.23077 8 1.23077C9.80769 1.23077 11.5077 1.93462 12.7846 3.21538C14.0654 4.49231 14.7692 6.19231 14.7692 8C14.7692 9.80769 14.0654 11.5077 12.7846 12.7846C11.5077 14.0654 9.80769 14.7692 8 14.7692C6.19231 14.7692 4.49231 14.0654 3.21538 12.7846C1.93462 11.5077 1.23077 9.80769 1.23077 8Z" fill="#0AA6BD"/>
</svg>
