<svg width="116" height="18" viewBox="0 0 116 18" fill="none" xmlns="http://www.w3.org/2000/svg">
<path d="M26.2347 13V1.8H30.6507C31.8881 1.8 32.7841 2.104 33.3387 2.712C33.9041 3.32 34.1867 4.07733 34.1867 4.984C34.1867 5.72 33.9681 6.38133 33.5307 6.968C33.1041 7.544 32.4534 7.92267 31.5787 8.104L33.9787 13H32.4107L30.1067 8.2H27.6267V13H26.2347ZM27.6267 6.904H30.6827C31.4081 6.904 31.9361 6.72267 32.2667 6.36C32.6081 5.99733 32.7787 5.54933 32.7787 5.016C32.7787 4.504 32.6134 4.056 32.2827 3.672C31.9627 3.288 31.4294 3.096 30.6827 3.096H27.6267V6.904ZM36.8754 13V1.8H43.5314V3.112H38.2674V6.552H41.7394V7.864H38.2674V11.672H43.8834V13H36.8754ZM53.5095 13L52.5495 10.264H48.1015L47.1575 13H45.7015L49.6695 1.8H50.9655L54.9335 13H53.5095ZM52.1175 9.032L50.6775 4.888C50.4962 4.36533 50.3788 3.98667 50.3255 3.752C50.2082 4.168 50.0908 4.54667 49.9735 4.888L48.5175 9.032H52.1175ZM57.0004 1.8H60.0564C60.9737 1.8 61.779 1.96 62.4724 2.28C63.1657 2.6 63.7097 3.032 64.1044 3.576C64.499 4.12 64.787 4.712 64.9684 5.352C65.1604 5.992 65.2564 6.67467 65.2564 7.4C65.2564 8.09333 65.1657 8.75467 64.9844 9.384C64.8137 10.0027 64.5364 10.5947 64.1524 11.16C63.779 11.7147 63.235 12.1627 62.5204 12.504C61.8057 12.8347 60.963 13 59.9924 13H57.0004V1.8ZM60.1684 11.704C60.8297 11.704 61.4057 11.5813 61.8964 11.336C62.3977 11.08 62.7817 10.7387 63.0484 10.312C63.315 9.87467 63.507 9.416 63.6244 8.936C63.7524 8.456 63.8164 7.944 63.8164 7.4C63.8164 6.632 63.7044 5.93333 63.4804 5.304C63.2564 4.67467 62.8724 4.14667 62.3284 3.72C61.7844 3.29333 61.123 3.08 60.3444 3.08H58.3924V11.704H60.1684ZM81.4002 13H80.0082V6.12C80.0082 5.68267 80.0189 5.272 80.0402 4.888C79.9336 5.18667 79.7682 5.608 79.5442 6.152L76.4722 13.192L73.4962 6.12C73.2402 5.50133 73.0802 5.096 73.0162 4.904C73.0482 5.192 73.0642 5.59733 73.0642 6.12V13H71.6722V1.8H72.9842L76.2322 9.336L76.5202 10.088C76.5629 9.96 76.6589 9.70933 76.8082 9.336L80.0722 1.8H81.4002V13ZM88.788 13.192C87.9453 13.192 87.204 13.0267 86.564 12.696C85.9347 12.3547 85.4387 11.9013 85.076 11.336C84.724 10.76 84.4627 10.1467 84.292 9.496C84.1213 8.83467 84.036 8.136 84.036 7.4C84.036 6.664 84.1213 5.97067 84.292 5.32C84.4627 4.65867 84.724 4.04533 85.076 3.48C85.4387 2.904 85.9347 2.45067 86.564 2.12C87.204 1.77867 87.9453 1.608 88.788 1.608C89.4707 1.608 90.084 1.72 90.628 1.944C91.1827 2.168 91.636 2.46667 91.988 2.84C92.3507 3.21333 92.6493 3.656 92.884 4.168C93.1293 4.68 93.3 5.20267 93.396 5.736C93.5027 6.26933 93.556 6.824 93.556 7.4C93.556 7.976 93.5027 8.53067 93.396 9.064C93.3 9.59733 93.1293 10.12 92.884 10.632C92.6493 11.144 92.3507 11.5867 91.988 11.96C91.636 12.3333 91.1827 12.632 90.628 12.856C90.084 13.08 89.4707 13.192 88.788 13.192ZM87.236 11.496C87.684 11.752 88.2013 11.88 88.788 11.88C89.3747 11.88 89.892 11.7467 90.34 11.48C90.788 11.2027 91.1347 10.84 91.38 10.392C91.6253 9.944 91.8067 9.46933 91.924 8.968C92.0413 8.456 92.1 7.93333 92.1 7.4C92.1 6.61067 91.9987 5.896 91.796 5.256C91.604 4.60533 91.2467 4.05067 90.724 3.592C90.212 3.13333 89.5667 2.904 88.788 2.904C88.2013 2.904 87.684 3.04267 87.236 3.32C86.7987 3.58667 86.4573 3.94933 86.212 4.408C85.9667 4.856 85.78 5.33067 85.652 5.832C85.5347 6.33333 85.476 6.856 85.476 7.4C85.476 7.976 85.5347 8.52 85.652 9.032C85.7693 9.544 85.9507 10.0187 86.196 10.456C86.452 10.8933 86.7987 11.24 87.236 11.496ZM96.2035 13V1.8H100.619C101.857 1.8 102.753 2.104 103.307 2.712C103.873 3.32 104.155 4.07733 104.155 4.984C104.155 5.72 103.937 6.38133 103.499 6.968C103.073 7.544 102.422 7.92267 101.547 8.104L103.947 13H102.379L100.075 8.2H97.5955V13H96.2035ZM97.5955 6.904H100.651C101.377 6.904 101.905 6.72267 102.235 6.36C102.577 5.99733 102.747 5.54933 102.747 5.016C102.747 4.504 102.582 4.056 102.251 3.672C101.931 3.288 101.398 3.096 100.651 3.096H97.5955V6.904ZM106.844 13V1.8H113.5V3.112H108.236V6.552H111.708V7.864H108.236V11.672H113.852V13H106.844Z" fill="white"/>
<path d="M7.02222 3.89063C7.31519 3.59766 7.79565 3.59766 8.08862 3.89063L11.8152 7.62891C12.1003 7.91406 12.1082 8.375 11.8386 8.66797L8.16675 12.3516C8.01831 12.5 7.8269 12.5742 7.63159 12.5742C7.44019 12.5742 7.24487 12.5 7.10034 12.3555C6.80737 12.0625 6.80347 11.5859 7.10034 11.2891L10.2214 8.12109L7.02222 4.95313C6.72534 4.66406 6.72534 4.1875 7.02222 3.89063Z" fill="#0AA6BD"/>
<path d="M0.666748 8C0.666748 12.4192 4.24752 16 8.66675 16C13.086 16 16.6667 12.4192 16.6667 8C16.6667 3.58077 13.086 0 8.66675 0C4.24752 0 0.666748 3.58077 0.666748 8ZM1.89752 8C1.89752 6.19231 2.60136 4.49231 3.88213 3.21538C5.15906 1.93462 6.85906 1.23077 8.66675 1.23077C10.4744 1.23077 12.1744 1.93462 13.4514 3.21538C14.7321 4.49231 15.436 6.19231 15.436 8C15.436 9.80769 14.7321 11.5077 13.4514 12.7846C12.1744 14.0654 10.4744 14.7692 8.66675 14.7692C6.85906 14.7692 5.15906 14.0654 3.88213 12.7846C2.60136 11.5077 1.89752 9.80769 1.89752 8Z" fill="#0AA6BD"/>
</svg>
