<svg width="13" height="30" viewBox="0 0 13 30" fill="none" xmlns="http://www.w3.org/2000/svg">
<path d="M2.35937 20.8203L2.35937 24.4766L12.5 24.4766L12.5 25.9687L2.35937 25.9687L2.35937 29.6172L1.125 29.6172L1.125 20.8203L2.35937 20.8203ZM7.17969 10.6016C8.29427 10.6016 9.26823 10.7891 10.1016 11.1641C10.9297 11.5391 11.5625 12.0703 12 12.7578C12.4375 13.4453 12.6562 14.2474 12.6562 15.1641C12.6562 16.0599 12.4375 16.8542 12 17.5469C11.5573 18.2396 10.9297 18.7786 10.1172 19.1641C9.29948 19.5443 8.35417 19.7396 7.28125 19.75L6.46094 19.75C5.36719 19.75 4.40104 19.5599 3.5625 19.1797C2.72396 18.7995 2.08333 18.263 1.64062 17.5703C1.19271 16.8724 0.968749 16.0755 0.968749 15.1797C0.968749 14.2682 1.1901 13.4661 1.63281 12.7734C2.07031 12.0755 2.70833 11.5391 3.54687 11.1641C4.38021 10.7891 5.35156 10.6016 6.46094 10.6016L7.17969 10.6016ZM6.44531 12.0937C5.09635 12.0937 4.0625 12.3646 3.34375 12.9062C2.61979 13.4479 2.25781 14.2057 2.25781 15.1797C2.25781 16.1276 2.61979 16.875 3.34375 17.4219C4.0625 17.9635 5.0625 18.2422 6.34375 18.2578L7.17969 18.2578C8.48698 18.2578 9.51562 17.9844 10.2656 17.4375C11.0104 16.8854 11.3828 16.1276 11.3828 15.1641C11.3828 14.1953 11.0312 13.4453 10.3281 12.9141C9.61979 12.3828 8.60677 12.1094 7.28906 12.0937L6.44531 12.0937ZM8.04687 6.85156L12.5 6.85156L12.5 8.35156L1.125 8.35156L1.125 4.15625C1.125 2.91146 1.44271 1.9375 2.07812 1.23437C2.71354 0.526041 3.55469 0.171875 4.60156 0.171875C5.70573 0.171875 6.55729 0.518229 7.15625 1.21094C7.75 1.89844 8.04687 2.88542 8.04687 4.17187L8.04687 6.85156ZM6.82031 6.85156L6.82031 4.15625C6.82031 3.35417 6.63281 2.73958 6.25781 2.3125C5.8776 1.88542 5.33073 1.67187 4.61719 1.67187C3.9401 1.67187 3.39844 1.88542 2.99219 2.3125C2.58594 2.73958 2.375 3.32552 2.35937 4.07031L2.35937 6.85156L6.82031 6.85156Z" fill="#808080"/>
</svg>
