<svg width="17" height="16" viewBox="0 0 17 16" fill="none" xmlns="http://www.w3.org/2000/svg">
<path d="M14.688 3.9841L15.657 2.8321C15.946 2.5281 16.031 2.3041 16.065 2.1601C15.317 2.6081 14.603 2.7361 14.093 2.7521H13.889L13.77 2.6241C13.158 2.1121 12.393 1.8241 11.56 1.8241C9.77498 1.8241 8.32998 3.2001 8.32998 4.8641C8.32998 4.9921 8.32998 5.1041 8.34698 5.2161L8.43198 5.7121L7.88798 5.6961C4.57298 5.6161 1.90398 2.9761 1.44498 2.4961C0.730978 3.7441 1.12198 4.8801 1.58098 5.6001L2.44798 6.9601L1.07098 6.2561C1.08798 7.2641 1.51298 8.0641 2.29498 8.6401L2.95798 9.1201L2.26098 9.3921C2.70298 10.6401 3.65498 11.1361 4.40298 11.3281L5.33798 11.5681L4.52198 12.0961C3.09398 13.0401 1.27498 12.9761 0.526978 12.9121C2.15898 13.9681 4.06298 14.1921 5.42298 14.1921C6.42598 14.1921 7.15698 14.0641 7.34398 14.0321C14.552 12.4321 14.875 6.3841 14.858 5.1681V4.9761L15.011 4.8481C15.878 4.0801 16.252 3.6481 16.456 3.4241C16.371 3.4721 16.286 3.4881 16.167 3.5201L14.688 3.9841Z" fill="#0AA6BD"/>
</svg>
