<svg width="174" height="17" viewBox="0 0 174 17" fill="none" xmlns="http://www.w3.org/2000/svg">
<path d="M28.608 12L24.768 0.799999H26.256L28.928 8.896C29.12 9.54667 29.232 9.92533 29.264 10.032C29.3067 9.82933 29.4133 9.45067 29.584 8.896L32.176 0.799999H33.664L29.84 12H28.608ZM35.7563 12V0.799999H37.1483V12H35.7563ZM40.318 12V0.799999H46.974V2.112H41.71V5.552H45.182V6.864H41.71V10.672H47.326V12H40.318ZM51.2911 12L49.0031 0.799999H50.4591L51.8351 8.096C51.9311 8.576 52.0005 8.976 52.0431 9.296C52.0431 9.28533 52.1445 8.89067 52.3471 8.112L54.3311 0.799999H55.4351L57.4351 8.096C57.5631 8.576 57.6485 8.93867 57.6911 9.184C57.7338 8.90667 57.8031 8.53867 57.8991 8.08L59.4191 0.799999H60.8431L58.4111 12H57.3071L55.1471 4.352C54.9871 3.76533 54.8911 3.39733 54.8591 3.248C54.8058 3.536 54.7151 3.904 54.5871 4.352L52.4271 12H51.2911ZM76.3898 12H74.9978V5.12C74.9978 4.68267 75.0084 4.272 75.0298 3.888C74.9231 4.18667 74.7578 4.608 74.5338 5.152L71.4618 12.192L68.4858 5.12C68.2298 4.50133 68.0698 4.096 68.0058 3.904C68.0378 4.192 68.0538 4.59733 68.0538 5.12V12H66.6618V0.799999H67.9738L71.2218 8.336L71.5098 9.088C71.5524 8.96 71.6484 8.70933 71.7978 8.336L75.0618 0.799999H76.3898V12ZM83.7775 12.192C82.9348 12.192 82.1935 12.0267 81.5535 11.696C80.9242 11.3547 80.4282 10.9013 80.0655 10.336C79.7135 9.76 79.4522 9.14667 79.2815 8.496C79.1108 7.83467 79.0255 7.136 79.0255 6.4C79.0255 5.664 79.1108 4.97067 79.2815 4.32C79.4522 3.65867 79.7135 3.04533 80.0655 2.48C80.4282 1.904 80.9242 1.45067 81.5535 1.12C82.1935 0.778666 82.9348 0.608 83.7775 0.608C84.4602 0.608 85.0735 0.72 85.6175 0.943999C86.1722 1.168 86.6255 1.46667 86.9775 1.84C87.3402 2.21333 87.6388 2.656 87.8735 3.168C88.1188 3.68 88.2895 4.20267 88.3855 4.736C88.4922 5.26933 88.5455 5.824 88.5455 6.4C88.5455 6.976 88.4922 7.53067 88.3855 8.064C88.2895 8.59733 88.1188 9.12 87.8735 9.632C87.6388 10.144 87.3402 10.5867 86.9775 10.96C86.6255 11.3333 86.1722 11.632 85.6175 11.856C85.0735 12.08 84.4602 12.192 83.7775 12.192ZM82.2255 10.496C82.6735 10.752 83.1908 10.88 83.7775 10.88C84.3642 10.88 84.8815 10.7467 85.3295 10.48C85.7775 10.2027 86.1242 9.84 86.3695 9.392C86.6148 8.944 86.7962 8.46933 86.9135 7.968C87.0308 7.456 87.0895 6.93333 87.0895 6.4C87.0895 5.61067 86.9882 4.896 86.7855 4.256C86.5935 3.60533 86.2362 3.05067 85.7135 2.592C85.2015 2.13333 84.5562 1.904 83.7775 1.904C83.1908 1.904 82.6735 2.04267 82.2255 2.32C81.7882 2.58667 81.4468 2.94933 81.2015 3.408C80.9562 3.856 80.7695 4.33067 80.6415 4.832C80.5242 5.33333 80.4655 5.856 80.4655 6.4C80.4655 6.976 80.5242 7.52 80.6415 8.032C80.7588 8.544 80.9402 9.01867 81.1855 9.456C81.4415 9.89333 81.7882 10.24 82.2255 10.496ZM91.193 12V0.799999H95.609C96.8463 0.799999 97.7423 1.104 98.297 1.712C98.8623 2.32 99.145 3.07733 99.145 3.984C99.145 4.72 98.9263 5.38133 98.489 5.968C98.0623 6.544 97.4117 6.92267 96.537 7.104L98.937 12H97.369L95.065 7.2H92.585V12H91.193ZM92.585 5.904H95.641C96.3663 5.904 96.8943 5.72267 97.225 5.36C97.5663 4.99733 97.737 4.54933 97.737 4.016C97.737 3.504 97.5717 3.056 97.241 2.672C96.921 2.288 96.3877 2.096 95.641 2.096H92.585V5.904ZM101.834 12V0.799999H108.49V2.112H103.226V5.552H106.698V6.864H103.226V10.672H108.842V12H101.834ZM115.177 12V0.799999H121.833V2.112H116.569V5.552H120.041V6.864H116.569V10.672H122.185V12H115.177ZM127.717 12L123.877 0.799999H125.365L128.037 8.896C128.229 9.54667 128.341 9.92533 128.373 10.032C128.416 9.82933 128.523 9.45067 128.693 8.896L131.285 0.799999H132.773L128.949 12H127.717ZM134.834 12V0.799999H141.49V2.112H136.226V5.552H139.698V6.864H136.226V10.672H141.842V12H134.834ZM152.604 12H151.26L146.22 4C146.028 3.69067 145.878 3.42933 145.772 3.216C145.793 3.536 145.804 3.79733 145.804 4V12H144.412V0.799999H145.82L150.78 8.768C150.95 9.04533 151.105 9.32267 151.244 9.6C151.222 9.216 151.212 8.944 151.212 8.784V0.799999H152.604V12ZM159.532 2.128V12H158.14V2.128H155.02V0.799999H162.652V2.128H159.532ZM168.332 12.192C167.383 12.192 166.556 11.9627 165.852 11.504C165.159 11.0347 164.684 10.432 164.428 9.696L165.74 9.216C165.975 9.728 166.321 10.1333 166.78 10.432C167.239 10.7307 167.767 10.88 168.364 10.88C169.047 10.88 169.585 10.72 169.98 10.4C170.375 10.0693 170.572 9.6 170.572 8.992C170.572 8.40533 170.348 7.936 169.9 7.584C169.463 7.232 168.844 6.912 168.044 6.624C167.66 6.48533 167.34 6.36267 167.084 6.256C166.839 6.14933 166.551 6 166.22 5.808C165.9 5.60533 165.644 5.40267 165.452 5.2C165.26 4.98667 165.095 4.72533 164.956 4.416C164.828 4.096 164.764 3.74933 164.764 3.376C164.764 2.59733 165.073 1.94133 165.692 1.408C166.311 0.874666 167.148 0.608 168.204 0.608C169.068 0.608 169.788 0.794666 170.364 1.168C170.94 1.53067 171.313 2.01067 171.484 2.608L170.204 3.04C170.055 2.70933 169.799 2.43733 169.436 2.224C169.073 2.01067 168.631 1.904 168.108 1.904C167.521 1.904 167.057 2.03733 166.716 2.304C166.375 2.56 166.204 2.91733 166.204 3.376C166.204 3.62133 166.263 3.84533 166.38 4.048C166.508 4.25067 166.7 4.432 166.956 4.592C167.223 4.752 167.468 4.88 167.692 4.976C167.916 5.072 168.225 5.19467 168.62 5.344C169.111 5.52533 169.516 5.70133 169.836 5.872C170.156 6.032 170.503 6.25067 170.876 6.528C171.249 6.80533 171.532 7.152 171.724 7.568C171.916 7.97333 172.012 8.43733 172.012 8.96C172.012 9.96267 171.671 10.752 170.988 11.328C170.305 11.904 169.42 12.192 168.332 12.192Z" fill="black"/>
<path d="M6.35547 4.89063C6.64844 4.59766 7.12891 4.59766 7.42187 4.89063L11.1484 8.62891C11.4336 8.91406 11.4414 9.375 11.1719 9.66797L7.5 13.3516C7.35156 13.5 7.16016 13.5742 6.96484 13.5742C6.77344 13.5742 6.57812 13.5 6.43359 13.3555C6.14062 13.0625 6.13672 12.5859 6.43359 12.2891L9.55469 9.12109L6.35547 5.95313C6.05859 5.66406 6.05859 5.1875 6.35547 4.89063Z" fill="#0AA6BD"/>
<path d="M0 9C0 13.4192 3.58077 17 8 17C12.4192 17 16 13.4192 16 9C16 4.58077 12.4192 1 8 1C3.58077 1 0 4.58077 0 9ZM1.23077 9C1.23077 7.19231 1.93462 5.49231 3.21538 4.21538C4.49231 2.93462 6.19231 2.23077 8 2.23077C9.80769 2.23077 11.5077 2.93462 12.7846 4.21538C14.0654 5.49231 14.7692 7.19231 14.7692 9C14.7692 10.8077 14.0654 12.5077 12.7846 13.7846C11.5077 15.0654 9.80769 15.7692 8 15.7692C6.19231 15.7692 4.49231 15.0654 3.21538 13.7846C1.93462 12.5077 1.23077 10.8077 1.23077 9Z" fill="#0AA6BD"/>
</svg>
