<svg width="193" height="18" viewBox="0 0 193 18" fill="none" xmlns="http://www.w3.org/2000/svg">
<path d="M28.608 13L24.768 1.8H26.256L28.928 9.896C29.12 10.5467 29.232 10.9253 29.264 11.032C29.3067 10.8293 29.4133 10.4507 29.584 9.896L32.176 1.8H33.664L29.84 13H28.608ZM35.7563 13V1.8H37.1483V13H35.7563ZM40.318 13V1.8H46.974V3.112H41.71V6.552H45.182V7.864H41.71V11.672H47.326V13H40.318ZM51.2911 13L49.0031 1.8H50.4591L51.8351 9.096C51.9311 9.576 52.0005 9.976 52.0431 10.296C52.0431 10.2853 52.1445 9.89067 52.3471 9.112L54.3311 1.8H55.4351L57.4351 9.096C57.5631 9.576 57.6485 9.93867 57.6911 10.184C57.7338 9.90667 57.8031 9.53867 57.8991 9.08L59.4191 1.8H60.8431L58.4111 13H57.3071L55.1471 5.352C54.9871 4.76533 54.8911 4.39733 54.8591 4.248C54.8058 4.536 54.7151 4.904 54.5871 5.352L52.4271 13H51.2911ZM76.3898 13H74.9978V6.12C74.9978 5.68267 75.0084 5.272 75.0298 4.888C74.9231 5.18667 74.7578 5.608 74.5338 6.152L71.4618 13.192L68.4858 6.12C68.2298 5.50133 68.0698 5.096 68.0058 4.904C68.0378 5.192 68.0538 5.59733 68.0538 6.12V13H66.6618V1.8H67.9738L71.2218 9.336L71.5098 10.088C71.5524 9.96 71.6484 9.70933 71.7978 9.336L75.0618 1.8H76.3898V13ZM83.7775 13.192C82.9348 13.192 82.1935 13.0267 81.5535 12.696C80.9242 12.3547 80.4282 11.9013 80.0655 11.336C79.7135 10.76 79.4522 10.1467 79.2815 9.496C79.1108 8.83467 79.0255 8.136 79.0255 7.4C79.0255 6.664 79.1108 5.97067 79.2815 5.32C79.4522 4.65867 79.7135 4.04533 80.0655 3.48C80.4282 2.904 80.9242 2.45067 81.5535 2.12C82.1935 1.77867 82.9348 1.608 83.7775 1.608C84.4602 1.608 85.0735 1.72 85.6175 1.944C86.1722 2.168 86.6255 2.46667 86.9775 2.84C87.3402 3.21333 87.6388 3.656 87.8735 4.168C88.1188 4.68 88.2895 5.20267 88.3855 5.736C88.4922 6.26933 88.5455 6.824 88.5455 7.4C88.5455 7.976 88.4922 8.53067 88.3855 9.064C88.2895 9.59733 88.1188 10.12 87.8735 10.632C87.6388 11.144 87.3402 11.5867 86.9775 11.96C86.6255 12.3333 86.1722 12.632 85.6175 12.856C85.0735 13.08 84.4602 13.192 83.7775 13.192ZM82.2255 11.496C82.6735 11.752 83.1908 11.88 83.7775 11.88C84.3642 11.88 84.8815 11.7467 85.3295 11.48C85.7775 11.2027 86.1242 10.84 86.3695 10.392C86.6148 9.944 86.7962 9.46933 86.9135 8.968C87.0308 8.456 87.0895 7.93333 87.0895 7.4C87.0895 6.61067 86.9882 5.896 86.7855 5.256C86.5935 4.60533 86.2362 4.05067 85.7135 3.592C85.2015 3.13333 84.5562 2.904 83.7775 2.904C83.1908 2.904 82.6735 3.04267 82.2255 3.32C81.7882 3.58667 81.4468 3.94933 81.2015 4.408C80.9562 4.856 80.7695 5.33067 80.6415 5.832C80.5242 6.33333 80.4655 6.856 80.4655 7.4C80.4655 7.976 80.5242 8.52 80.6415 9.032C80.7588 9.544 80.9402 10.0187 81.1855 10.456C81.4415 10.8933 81.7882 11.24 82.2255 11.496ZM91.193 13V1.8H95.609C96.8463 1.8 97.7423 2.104 98.297 2.712C98.8623 3.32 99.145 4.07733 99.145 4.984C99.145 5.72 98.9263 6.38133 98.489 6.968C98.0623 7.544 97.4117 7.92267 96.537 8.104L98.937 13H97.369L95.065 8.2H92.585V13H91.193ZM92.585 6.904H95.641C96.3663 6.904 96.8943 6.72267 97.225 6.36C97.5663 5.99733 97.737 5.54933 97.737 5.016C97.737 4.504 97.5717 4.056 97.241 3.672C96.921 3.288 96.3877 3.096 95.641 3.096H92.585V6.904ZM101.834 13V1.8H108.49V3.112H103.226V6.552H106.698V7.864H103.226V11.672H108.842V13H101.834ZM115.177 13V1.8H119.465C120.116 1.8 120.681 1.896 121.161 2.088C121.652 2.28 122.031 2.54133 122.297 2.872C122.564 3.192 122.761 3.544 122.889 3.928C123.017 4.312 123.081 4.72267 123.081 5.16C123.081 6.04533 122.777 6.824 122.169 7.496C121.572 8.168 120.671 8.504 119.465 8.504H116.569V13H115.177ZM119.561 7.208C120.287 7.208 120.82 7.00533 121.161 6.6C121.513 6.19467 121.689 5.71467 121.689 5.16C121.689 4.616 121.524 4.136 121.193 3.72C120.863 3.304 120.319 3.096 119.561 3.096H116.569V7.208H119.561ZM125.256 13V1.8H129.672C130.909 1.8 131.805 2.104 132.36 2.712C132.925 3.32 133.208 4.07733 133.208 4.984C133.208 5.72 132.989 6.38133 132.552 6.968C132.125 7.544 131.474 7.92267 130.6 8.104L133 13H131.432L129.128 8.2H126.648V13H125.256ZM126.648 6.904H129.704C130.429 6.904 130.957 6.72267 131.288 6.36C131.629 5.99733 131.8 5.54933 131.8 5.016C131.8 4.504 131.634 4.056 131.304 3.672C130.984 3.288 130.45 3.096 129.704 3.096H126.648V6.904ZM140.168 13.192C139.325 13.192 138.584 13.0267 137.944 12.696C137.315 12.3547 136.819 11.9013 136.456 11.336C136.104 10.76 135.843 10.1467 135.672 9.496C135.501 8.83467 135.416 8.136 135.416 7.4C135.416 6.664 135.501 5.97067 135.672 5.32C135.843 4.65867 136.104 4.04533 136.456 3.48C136.819 2.904 137.315 2.45067 137.944 2.12C138.584 1.77867 139.325 1.608 140.168 1.608C140.851 1.608 141.464 1.72 142.008 1.944C142.563 2.168 143.016 2.46667 143.368 2.84C143.731 3.21333 144.029 3.656 144.264 4.168C144.509 4.68 144.68 5.20267 144.776 5.736C144.883 6.26933 144.936 6.824 144.936 7.4C144.936 7.976 144.883 8.53067 144.776 9.064C144.68 9.59733 144.509 10.12 144.264 10.632C144.029 11.144 143.731 11.5867 143.368 11.96C143.016 12.3333 142.563 12.632 142.008 12.856C141.464 13.08 140.851 13.192 140.168 13.192ZM138.616 11.496C139.064 11.752 139.581 11.88 140.168 11.88C140.755 11.88 141.272 11.7467 141.72 11.48C142.168 11.2027 142.515 10.84 142.76 10.392C143.005 9.944 143.187 9.46933 143.304 8.968C143.421 8.456 143.48 7.93333 143.48 7.4C143.48 6.61067 143.379 5.896 143.176 5.256C142.984 4.60533 142.627 4.05067 142.104 3.592C141.592 3.13333 140.947 2.904 140.168 2.904C139.581 2.904 139.064 3.04267 138.616 3.32C138.179 3.58667 137.837 3.94933 137.592 4.408C137.347 4.856 137.16 5.33067 137.032 5.832C136.915 6.33333 136.856 6.856 136.856 7.4C136.856 7.976 136.915 8.52 137.032 9.032C137.149 9.544 137.331 10.0187 137.576 10.456C137.832 10.8933 138.179 11.24 138.616 11.496ZM149.493 13.192C147.914 13.192 146.837 12.52 146.261 11.176L147.413 10.584C147.637 11.0427 147.903 11.3733 148.213 11.576C148.522 11.7787 148.954 11.88 149.509 11.88C150.927 11.88 151.637 11.0427 151.637 9.368V1.8H153.029V9.32C153.029 10.056 152.922 10.6907 152.709 11.224C152.495 11.7467 152.207 12.1467 151.845 12.424C151.482 12.6907 151.103 12.8827 150.709 13C150.325 13.128 149.919 13.192 149.493 13.192ZM156.115 13V1.8H162.771V3.112H157.507V6.552H160.979V7.864H157.507V11.672H163.123V13H156.115ZM169.369 13.192C168.558 13.192 167.843 13.0267 167.225 12.696C166.606 12.3653 166.121 11.9173 165.769 11.352C165.417 10.7867 165.155 10.1733 164.985 9.512C164.814 8.85067 164.729 8.14667 164.729 7.4C164.729 6.664 164.814 5.96533 164.985 5.304C165.166 4.632 165.433 4.01867 165.785 3.464C166.147 2.89867 166.633 2.45067 167.241 2.12C167.859 1.77867 168.569 1.608 169.369 1.608C171.118 1.608 172.323 2.28 172.985 3.624L171.737 4.264C171.438 3.816 171.107 3.48 170.745 3.256C170.393 3.02133 169.934 2.904 169.369 2.904C168.611 2.904 167.982 3.144 167.481 3.624C166.979 4.104 166.633 4.66933 166.441 5.32C166.259 5.96 166.169 6.65333 166.169 7.4C166.169 8.62667 166.441 9.68267 166.985 10.568C167.529 11.4427 168.323 11.88 169.369 11.88C170.414 11.88 171.225 11.4053 171.801 10.456L173.081 10.936C172.771 11.6187 172.307 12.168 171.689 12.584C171.07 12.9893 170.297 13.192 169.369 13.192ZM179.204 3.128V13H177.812V3.128H174.692V1.8H182.324V3.128H179.204ZM188.004 13.192C187.055 13.192 186.228 12.9627 185.524 12.504C184.831 12.0347 184.356 11.432 184.1 10.696L185.412 10.216C185.647 10.728 185.993 11.1333 186.452 11.432C186.911 11.7307 187.439 11.88 188.036 11.88C188.719 11.88 189.257 11.72 189.652 11.4C190.047 11.0693 190.244 10.6 190.244 9.992C190.244 9.40533 190.02 8.936 189.572 8.584C189.135 8.232 188.516 7.912 187.716 7.624C187.332 7.48533 187.012 7.36267 186.756 7.256C186.511 7.14933 186.223 7 185.892 6.808C185.572 6.60533 185.316 6.40267 185.124 6.2C184.932 5.98667 184.767 5.72533 184.628 5.416C184.5 5.096 184.436 4.74933 184.436 4.376C184.436 3.59733 184.745 2.94133 185.364 2.408C185.983 1.87467 186.82 1.608 187.876 1.608C188.74 1.608 189.46 1.79467 190.036 2.168C190.612 2.53067 190.985 3.01067 191.156 3.608L189.876 4.04C189.727 3.70933 189.471 3.43733 189.108 3.224C188.745 3.01067 188.303 2.904 187.78 2.904C187.193 2.904 186.729 3.03733 186.388 3.304C186.047 3.56 185.876 3.91733 185.876 4.376C185.876 4.62133 185.935 4.84533 186.052 5.048C186.18 5.25067 186.372 5.432 186.628 5.592C186.895 5.752 187.14 5.88 187.364 5.976C187.588 6.072 187.897 6.19467 188.292 6.344C188.783 6.52533 189.188 6.70133 189.508 6.872C189.828 7.032 190.175 7.25067 190.548 7.528C190.921 7.80533 191.204 8.152 191.396 8.568C191.588 8.97333 191.684 9.43733 191.684 9.96C191.684 10.9627 191.343 11.752 190.66 12.328C189.977 12.904 189.092 13.192 188.004 13.192Z" fill="black"/>
<path d="M6.35547 3.89063C6.64844 3.59766 7.12891 3.59766 7.42187 3.89063L11.1484 7.62891C11.4336 7.91406 11.4414 8.375 11.1719 8.66797L7.5 12.3516C7.35156 12.5 7.16016 12.5742 6.96484 12.5742C6.77344 12.5742 6.57812 12.5 6.43359 12.3555C6.14062 12.0625 6.13672 11.5859 6.43359 11.2891L9.55469 8.12109L6.35547 4.95313C6.05859 4.66406 6.05859 4.1875 6.35547 3.89063Z" fill="#0AA6BD"/>
<path d="M0 8C0 12.4192 3.58077 16 8 16C12.4192 16 16 12.4192 16 8C16 3.58077 12.4192 0 8 0C3.58077 0 0 3.58077 0 8ZM1.23077 8C1.23077 6.19231 1.93462 4.49231 3.21538 3.21538C4.49231 1.93462 6.19231 1.23077 8 1.23077C9.80769 1.23077 11.5077 1.93462 12.7846 3.21538C14.0654 4.49231 14.7692 6.19231 14.7692 8C14.7692 9.80769 14.0654 11.5077 12.7846 12.7846C11.5077 14.0654 9.80769 14.7692 8 14.7692C6.19231 14.7692 4.49231 14.0654 3.21538 12.7846C1.93462 11.5077 1.23077 9.80769 1.23077 8Z" fill="#0AA6BD"/>
</svg>
