<svg width="135" height="19" viewBox="0 0 135 19" fill="none" xmlns="http://www.w3.org/2000/svg">
<path d="M28.608 13.5L24.768 2.3H26.256L28.928 10.396C29.12 11.0467 29.232 11.4253 29.264 11.532C29.3067 11.3293 29.4133 10.9507 29.584 10.396L32.176 2.3H33.664L29.84 13.5H28.608ZM35.7563 13.5V2.3H37.1483V13.5H35.7563ZM40.318 13.5V2.3H46.974V3.612H41.71V7.052H45.182V8.364H41.71V12.172H47.326V13.5H40.318ZM51.2911 13.5L49.0031 2.3H50.4591L51.8351 9.596C51.9311 10.076 52.0005 10.476 52.0431 10.796C52.0431 10.7853 52.1445 10.3907 52.3471 9.612L54.3311 2.3H55.4351L57.4351 9.596C57.5631 10.076 57.6485 10.4387 57.6911 10.684C57.7338 10.4067 57.8031 10.0387 57.8991 9.58L59.4191 2.3H60.8431L58.4111 13.5H57.3071L55.1471 5.852C54.9871 5.26533 54.8911 4.89733 54.8591 4.748C54.8058 5.036 54.7151 5.404 54.5871 5.852L52.4271 13.5H51.2911ZM70.9338 13.692C70.1124 13.692 69.3871 13.532 68.7578 13.212C68.1391 12.8813 67.6431 12.4387 67.2698 11.884C66.9071 11.3293 66.6351 10.716 66.4538 10.044C66.2724 9.372 66.1818 8.65733 66.1818 7.9C66.1818 7.15333 66.2778 6.444 66.4698 5.772C66.6618 5.08933 66.9444 4.476 67.3178 3.932C67.6911 3.37733 68.1871 2.93467 68.8058 2.604C69.4351 2.27333 70.1444 2.108 70.9338 2.108C71.8831 2.108 72.6298 2.284 73.1737 2.636C73.7284 2.988 74.1924 3.468 74.5658 4.076L73.3177 4.796C73.0191 4.35867 72.6884 4.02267 72.3258 3.788C71.9631 3.54267 71.4991 3.42 70.9338 3.42C70.4538 3.42 70.0218 3.51067 69.6378 3.692C69.2538 3.87333 68.9391 4.11333 68.6938 4.412C68.4484 4.7 68.2404 5.04133 68.0698 5.436C67.9098 5.83067 67.7924 6.236 67.7178 6.652C67.6538 7.05733 67.6218 7.47333 67.6218 7.9C67.6218 9.15867 67.8991 10.22 68.4538 11.084C69.0084 11.9373 69.8351 12.364 70.9338 12.364C71.6911 12.364 72.2991 12.1293 72.7578 11.66C73.2164 11.18 73.4458 10.556 73.4458 9.788V9.34H71.4138V8.06H74.9018V9.404C74.9018 10.7587 74.5284 11.8147 73.7818 12.572C73.0458 13.3187 72.0964 13.692 70.9338 13.692ZM84.4209 13.5L83.4609 10.764H79.0129L78.0689 13.5H76.6129L80.5809 2.3H81.8769L85.8449 13.5H84.4209ZM83.0289 9.532L81.5889 5.388C81.4075 4.86533 81.2902 4.48667 81.2369 4.252C81.1195 4.668 81.0022 5.04667 80.8849 5.388L79.4289 9.532H83.0289ZM87.9118 13.5V2.3H89.3038V12.156H94.8078V13.5H87.9118ZM96.8493 13.5V2.3H98.2413V12.156H103.745V13.5H96.8493ZM105.787 13.5V2.3H112.443V3.612H107.179V7.052H110.651V8.364H107.179V12.172H112.795V13.5H105.787ZM115.365 13.5V2.3H119.781C121.018 2.3 121.914 2.604 122.469 3.212C123.034 3.82 123.317 4.57733 123.317 5.484C123.317 6.22 123.098 6.88133 122.661 7.468C122.234 8.044 121.584 8.42267 120.709 8.604L123.109 13.5H121.541L119.237 8.7H116.757V13.5H115.365ZM116.757 7.404H119.813C120.538 7.404 121.066 7.22267 121.397 6.86C121.738 6.49733 121.909 6.04933 121.909 5.516C121.909 5.004 121.744 4.556 121.413 4.172C121.093 3.788 120.56 3.596 119.813 3.596H116.757V7.404ZM128.886 13.5V9.1L125.078 2.3H126.646L129.574 7.74L132.534 2.3H134.054L130.278 9.068V13.5H128.886Z" fill="white"/>
<path d="M6.35547 4.39063C6.64844 4.09766 7.12891 4.09766 7.42187 4.39063L11.1484 8.12891C11.4336 8.41406 11.4414 8.875 11.1719 9.16797L7.5 12.8516C7.35156 13 7.16016 13.0742 6.96484 13.0742C6.77344 13.0742 6.57812 13 6.43359 12.8555C6.14062 12.5625 6.13672 12.0859 6.43359 11.7891L9.55469 8.62109L6.35547 5.45313C6.05859 5.16406 6.05859 4.6875 6.35547 4.39063Z" fill="#0AA6BD"/>
<path d="M0 8.5C0 12.9192 3.58077 16.5 8 16.5C12.4192 16.5 16 12.9192 16 8.5C16 4.08077 12.4192 0.5 8 0.5C3.58077 0.5 0 4.08077 0 8.5ZM1.23077 8.5C1.23077 6.69231 1.93462 4.99231 3.21538 3.71538C4.49231 2.43462 6.19231 1.73077 8 1.73077C9.80769 1.73077 11.5077 2.43462 12.7846 3.71538C14.0654 4.99231 14.7692 6.69231 14.7692 8.5C14.7692 10.3077 14.0654 12.0077 12.7846 13.2846C11.5077 14.5654 9.80769 15.2692 8 15.2692C6.19231 15.2692 4.49231 14.5654 3.21538 13.2846C1.93462 12.0077 1.23077 10.3077 1.23077 8.5Z" fill="#0AA6BD"/>
</svg>
