<svg width="197" height="18" viewBox="0 0 197 18" fill="none" xmlns="http://www.w3.org/2000/svg">
<path d="M28.608 13L24.768 1.8H26.256L28.928 9.896C29.12 10.5467 29.232 10.9253 29.264 11.032C29.3067 10.8293 29.4133 10.4507 29.584 9.896L32.176 1.8H33.664L29.84 13H28.608ZM35.7563 13V1.8H37.1483V13H35.7563ZM40.318 13V1.8H46.974V3.112H41.71V6.552H45.182V7.864H41.71V11.672H47.326V13H40.318ZM51.2911 13L49.0031 1.8H50.4591L51.8351 9.096C51.9311 9.576 52.0005 9.976 52.0431 10.296C52.0431 10.2853 52.1445 9.89067 52.3471 9.112L54.3311 1.8H55.4351L57.4351 9.096C57.5631 9.576 57.6485 9.93867 57.6911 10.184C57.7338 9.90667 57.8031 9.53867 57.8991 9.08L59.4191 1.8H60.8431L58.4111 13H57.3071L55.1471 5.352C54.9871 4.76533 54.8911 4.39733 54.8591 4.248C54.8058 4.536 54.7151 4.904 54.5871 5.352L52.4271 13H51.2911ZM76.3898 13H74.9978V6.12C74.9978 5.68267 75.0084 5.272 75.0298 4.888C74.9231 5.18667 74.7578 5.608 74.5338 6.152L71.4618 13.192L68.4858 6.12C68.2298 5.50133 68.0698 5.096 68.0058 4.904C68.0378 5.192 68.0538 5.59733 68.0538 6.12V13H66.6618V1.8H67.9738L71.2218 9.336L71.5098 10.088C71.5524 9.96 71.6484 9.70933 71.7978 9.336L75.0618 1.8H76.3898V13ZM83.7775 13.192C82.9348 13.192 82.1935 13.0267 81.5535 12.696C80.9242 12.3547 80.4282 11.9013 80.0655 11.336C79.7135 10.76 79.4522 10.1467 79.2815 9.496C79.1108 8.83467 79.0255 8.136 79.0255 7.4C79.0255 6.664 79.1108 5.97067 79.2815 5.32C79.4522 4.65867 79.7135 4.04533 80.0655 3.48C80.4282 2.904 80.9242 2.45067 81.5535 2.12C82.1935 1.77867 82.9348 1.608 83.7775 1.608C84.4602 1.608 85.0735 1.72 85.6175 1.944C86.1722 2.168 86.6255 2.46667 86.9775 2.84C87.3402 3.21333 87.6388 3.656 87.8735 4.168C88.1188 4.68 88.2895 5.20267 88.3855 5.736C88.4922 6.26933 88.5455 6.824 88.5455 7.4C88.5455 7.976 88.4922 8.53067 88.3855 9.064C88.2895 9.59733 88.1188 10.12 87.8735 10.632C87.6388 11.144 87.3402 11.5867 86.9775 11.96C86.6255 12.3333 86.1722 12.632 85.6175 12.856C85.0735 13.08 84.4602 13.192 83.7775 13.192ZM82.2255 11.496C82.6735 11.752 83.1908 11.88 83.7775 11.88C84.3642 11.88 84.8815 11.7467 85.3295 11.48C85.7775 11.2027 86.1242 10.84 86.3695 10.392C86.6148 9.944 86.7962 9.46933 86.9135 8.968C87.0308 8.456 87.0895 7.93333 87.0895 7.4C87.0895 6.61067 86.9882 5.896 86.7855 5.256C86.5935 4.60533 86.2362 4.05067 85.7135 3.592C85.2015 3.13333 84.5562 2.904 83.7775 2.904C83.1908 2.904 82.6735 3.04267 82.2255 3.32C81.7882 3.58667 81.4468 3.94933 81.2015 4.408C80.9562 4.856 80.7695 5.33067 80.6415 5.832C80.5242 6.33333 80.4655 6.856 80.4655 7.4C80.4655 7.976 80.5242 8.52 80.6415 9.032C80.7588 9.544 80.9402 10.0187 81.1855 10.456C81.4415 10.8933 81.7882 11.24 82.2255 11.496ZM91.193 13V1.8H95.609C96.8463 1.8 97.7423 2.104 98.297 2.712C98.8623 3.32 99.145 4.07733 99.145 4.984C99.145 5.72 98.9263 6.38133 98.489 6.968C98.0623 7.544 97.4117 7.92267 96.537 8.104L98.937 13H97.369L95.065 8.2H92.585V13H91.193ZM92.585 6.904H95.641C96.3663 6.904 96.8943 6.72267 97.225 6.36C97.5663 5.99733 97.737 5.54933 97.737 5.016C97.737 4.504 97.5717 4.056 97.241 3.672C96.921 3.288 96.3877 3.096 95.641 3.096H92.585V6.904ZM101.834 13V1.8H108.49V3.112H103.226V6.552H106.698V7.864H103.226V11.672H108.842V13H101.834ZM119.449 13.192C118.628 13.192 117.903 13.032 117.273 12.712C116.655 12.3813 116.159 11.9387 115.785 11.384C115.423 10.8293 115.151 10.216 114.969 9.544C114.788 8.872 114.697 8.15733 114.697 7.4C114.697 6.65333 114.793 5.944 114.985 5.272C115.177 4.58933 115.46 3.976 115.833 3.432C116.207 2.87733 116.703 2.43467 117.321 2.104C117.951 1.77333 118.66 1.608 119.449 1.608C120.399 1.608 121.145 1.784 121.689 2.136C122.244 2.488 122.708 2.968 123.081 3.576L121.833 4.296C121.535 3.85867 121.204 3.52267 120.841 3.288C120.479 3.04267 120.015 2.92 119.449 2.92C118.969 2.92 118.537 3.01067 118.153 3.192C117.769 3.37333 117.455 3.61333 117.209 3.912C116.964 4.2 116.756 4.54133 116.585 4.936C116.425 5.33067 116.308 5.736 116.233 6.152C116.169 6.55733 116.137 6.97333 116.137 7.4C116.137 8.65867 116.415 9.72 116.969 10.584C117.524 11.4373 118.351 11.864 119.449 11.864C120.207 11.864 120.815 11.6293 121.273 11.16C121.732 10.68 121.961 10.056 121.961 9.288V8.84H119.929V7.56H123.417V8.904C123.417 10.2587 123.044 11.3147 122.297 12.072C121.561 12.8187 120.612 13.192 119.449 13.192ZM132.937 13L131.977 10.264H127.529L126.585 13H125.129L129.097 1.8H130.393L134.361 13H132.937ZM131.545 9.032L130.105 4.888C129.923 4.36533 129.806 3.98667 129.753 3.752C129.635 4.168 129.518 4.54667 129.401 4.888L127.945 9.032H131.545ZM136.427 13V1.8H137.819V11.656H143.323V13H136.427ZM145.365 13V1.8H146.757V11.656H152.261V13H145.365ZM154.302 13V1.8H160.958V3.112H155.694V6.552H159.166V7.864H155.694V11.672H161.31V13H154.302ZM163.881 13V1.8H168.297C169.534 1.8 170.43 2.104 170.985 2.712C171.55 3.32 171.833 4.07733 171.833 4.984C171.833 5.72 171.614 6.38133 171.177 6.968C170.75 7.544 170.099 7.92267 169.225 8.104L171.625 13H170.057L167.753 8.2H165.273V13H163.881ZM165.273 6.904H168.329C169.054 6.904 169.582 6.72267 169.913 6.36C170.254 5.99733 170.425 5.54933 170.425 5.016C170.425 4.504 170.259 4.056 169.929 3.672C169.609 3.288 169.075 3.096 168.329 3.096H165.273V6.904ZM174.553 13V1.8H175.945V13H174.553ZM179.115 13V1.8H185.771V3.112H180.507V6.552H183.979V7.864H180.507V11.672H186.123V13H179.115ZM191.957 13.192C191.008 13.192 190.181 12.9627 189.477 12.504C188.784 12.0347 188.309 11.432 188.053 10.696L189.365 10.216C189.6 10.728 189.946 11.1333 190.405 11.432C190.864 11.7307 191.392 11.88 191.989 11.88C192.672 11.88 193.21 11.72 193.605 11.4C194 11.0693 194.197 10.6 194.197 9.992C194.197 9.40533 193.973 8.936 193.525 8.584C193.088 8.232 192.469 7.912 191.669 7.624C191.285 7.48533 190.965 7.36267 190.709 7.256C190.464 7.14933 190.176 7 189.845 6.808C189.525 6.60533 189.269 6.40267 189.077 6.2C188.885 5.98667 188.72 5.72533 188.581 5.416C188.453 5.096 188.389 4.74933 188.389 4.376C188.389 3.59733 188.698 2.94133 189.317 2.408C189.936 1.87467 190.773 1.608 191.829 1.608C192.693 1.608 193.413 1.79467 193.989 2.168C194.565 2.53067 194.938 3.01067 195.109 3.608L193.829 4.04C193.68 3.70933 193.424 3.43733 193.061 3.224C192.698 3.01067 192.256 2.904 191.733 2.904C191.146 2.904 190.682 3.03733 190.341 3.304C190 3.56 189.829 3.91733 189.829 4.376C189.829 4.62133 189.888 4.84533 190.005 5.048C190.133 5.25067 190.325 5.432 190.581 5.592C190.848 5.752 191.093 5.88 191.317 5.976C191.541 6.072 191.85 6.19467 192.245 6.344C192.736 6.52533 193.141 6.70133 193.461 6.872C193.781 7.032 194.128 7.25067 194.501 7.528C194.874 7.80533 195.157 8.152 195.349 8.568C195.541 8.97333 195.637 9.43733 195.637 9.96C195.637 10.9627 195.296 11.752 194.613 12.328C193.93 12.904 193.045 13.192 191.957 13.192Z" fill="black"/>
<path d="M6.35547 3.89063C6.64844 3.59766 7.12891 3.59766 7.42187 3.89063L11.1484 7.62891C11.4336 7.91406 11.4414 8.375 11.1719 8.66797L7.5 12.3516C7.35156 12.5 7.16016 12.5742 6.96484 12.5742C6.77344 12.5742 6.57812 12.5 6.43359 12.3555C6.14062 12.0625 6.13672 11.5859 6.43359 11.2891L9.55469 8.12109L6.35547 4.95313C6.05859 4.66406 6.05859 4.1875 6.35547 3.89063Z" fill="#0AA6BD"/>
<path d="M0 8C0 12.4192 3.58077 16 8 16C12.4192 16 16 12.4192 16 8C16 3.58077 12.4192 0 8 0C3.58077 0 0 3.58077 0 8ZM1.23077 8C1.23077 6.19231 1.93462 4.49231 3.21538 3.21538C4.49231 1.93462 6.19231 1.23077 8 1.23077C9.80769 1.23077 11.5077 1.93462 12.7846 3.21538C14.0654 4.49231 14.7692 6.19231 14.7692 8C14.7692 9.80769 14.0654 11.5077 12.7846 12.7846C11.5077 14.0654 9.80769 14.7692 8 14.7692C6.19231 14.7692 4.49231 14.0654 3.21538 12.7846C1.93462 11.5077 1.23077 9.80769 1.23077 8Z" fill="#0AA6BD"/>
</svg>
