<svg width="158" height="18" viewBox="0 0 158 18" fill="none" xmlns="http://www.w3.org/2000/svg">
<path d="M28.608 13L24.768 1.8H26.256L28.928 9.896C29.12 10.5467 29.232 10.9253 29.264 11.032C29.3067 10.8293 29.4133 10.4507 29.584 9.896L32.176 1.8H33.664L29.84 13H28.608ZM35.7563 13V1.8H37.1483V13H35.7563ZM40.318 13V1.8H46.974V3.112H41.71V6.552H45.182V7.864H41.71V11.672H47.326V13H40.318ZM51.2911 13L49.0031 1.8H50.4591L51.8351 9.096C51.9311 9.576 52.0005 9.976 52.0431 10.296C52.0431 10.2853 52.1445 9.89067 52.3471 9.112L54.3311 1.8H55.4351L57.4351 9.096C57.5631 9.576 57.6485 9.93867 57.6911 10.184C57.7338 9.90667 57.8031 9.53867 57.8991 9.08L59.4191 1.8H60.8431L58.4111 13H57.3071L55.1471 5.352C54.9871 4.76533 54.8911 4.39733 54.8591 4.248C54.8058 4.536 54.7151 4.904 54.5871 5.352L52.4271 13H51.2911ZM76.3898 13H74.9978V6.12C74.9978 5.68267 75.0084 5.272 75.0298 4.888C74.9231 5.18667 74.7578 5.608 74.5338 6.152L71.4618 13.192L68.4858 6.12C68.2298 5.50133 68.0698 5.096 68.0058 4.904C68.0378 5.192 68.0538 5.59733 68.0538 6.12V13H66.6618V1.8H67.9738L71.2218 9.336L71.5098 10.088C71.5524 9.96 71.6484 9.70933 71.7978 9.336L75.0618 1.8H76.3898V13ZM83.7775 13.192C82.9348 13.192 82.1935 13.0267 81.5535 12.696C80.9242 12.3547 80.4282 11.9013 80.0655 11.336C79.7135 10.76 79.4522 10.1467 79.2815 9.496C79.1108 8.83467 79.0255 8.136 79.0255 7.4C79.0255 6.664 79.1108 5.97067 79.2815 5.32C79.4522 4.65867 79.7135 4.04533 80.0655 3.48C80.4282 2.904 80.9242 2.45067 81.5535 2.12C82.1935 1.77867 82.9348 1.608 83.7775 1.608C84.4602 1.608 85.0735 1.72 85.6175 1.944C86.1722 2.168 86.6255 2.46667 86.9775 2.84C87.3402 3.21333 87.6388 3.656 87.8735 4.168C88.1188 4.68 88.2895 5.20267 88.3855 5.736C88.4922 6.26933 88.5455 6.824 88.5455 7.4C88.5455 7.976 88.4922 8.53067 88.3855 9.064C88.2895 9.59733 88.1188 10.12 87.8735 10.632C87.6388 11.144 87.3402 11.5867 86.9775 11.96C86.6255 12.3333 86.1722 12.632 85.6175 12.856C85.0735 13.08 84.4602 13.192 83.7775 13.192ZM82.2255 11.496C82.6735 11.752 83.1908 11.88 83.7775 11.88C84.3642 11.88 84.8815 11.7467 85.3295 11.48C85.7775 11.2027 86.1242 10.84 86.3695 10.392C86.6148 9.944 86.7962 9.46933 86.9135 8.968C87.0308 8.456 87.0895 7.93333 87.0895 7.4C87.0895 6.61067 86.9882 5.896 86.7855 5.256C86.5935 4.60533 86.2362 4.05067 85.7135 3.592C85.2015 3.13333 84.5562 2.904 83.7775 2.904C83.1908 2.904 82.6735 3.04267 82.2255 3.32C81.7882 3.58667 81.4468 3.94933 81.2015 4.408C80.9562 4.856 80.7695 5.33067 80.6415 5.832C80.5242 6.33333 80.4655 6.856 80.4655 7.4C80.4655 7.976 80.5242 8.52 80.6415 9.032C80.7588 9.544 80.9402 10.0187 81.1855 10.456C81.4415 10.8933 81.7882 11.24 82.2255 11.496ZM91.193 13V1.8H95.609C96.8463 1.8 97.7423 2.104 98.297 2.712C98.8623 3.32 99.145 4.07733 99.145 4.984C99.145 5.72 98.9263 6.38133 98.489 6.968C98.0623 7.544 97.4117 7.92267 96.537 8.104L98.937 13H97.369L95.065 8.2H92.585V13H91.193ZM92.585 6.904H95.641C96.3663 6.904 96.8943 6.72267 97.225 6.36C97.5663 5.99733 97.737 5.54933 97.737 5.016C97.737 4.504 97.5717 4.056 97.241 3.672C96.921 3.288 96.3877 3.096 95.641 3.096H92.585V6.904ZM101.834 13V1.8H108.49V3.112H103.226V6.552H106.698V7.864H103.226V11.672H108.842V13H101.834ZM123.369 13H122.025L116.985 5C116.793 4.69067 116.644 4.42933 116.537 4.216C116.559 4.536 116.569 4.79733 116.569 5V13H115.177V1.8H116.585L121.545 9.768C121.716 10.0453 121.871 10.3227 122.009 10.6C121.988 10.216 121.977 9.944 121.977 9.784V1.8H123.369V13ZM126.506 13V1.8H133.161V3.112H127.898V6.552H131.37V7.864H127.898V11.672H133.514V13H126.506ZM137.479 13L135.191 1.8H136.647L138.023 9.096C138.119 9.576 138.188 9.976 138.231 10.296C138.231 10.2853 138.332 9.89067 138.535 9.112L140.519 1.8H141.623L143.623 9.096C143.751 9.576 143.836 9.93867 143.879 10.184C143.921 9.90667 143.991 9.53867 144.087 9.08L145.607 1.8H147.031L144.599 13H143.495L141.335 5.352C141.175 4.76533 141.079 4.39733 141.047 4.248C140.993 4.536 140.903 4.904 140.775 5.352L138.615 13H137.479ZM152.66 13.192C151.711 13.192 150.884 12.9627 150.18 12.504C149.487 12.0347 149.012 11.432 148.756 10.696L150.068 10.216C150.303 10.728 150.649 11.1333 151.108 11.432C151.567 11.7307 152.095 11.88 152.692 11.88C153.375 11.88 153.913 11.72 154.308 11.4C154.703 11.0693 154.9 10.6 154.9 9.992C154.9 9.40533 154.676 8.936 154.228 8.584C153.791 8.232 153.172 7.912 152.372 7.624C151.988 7.48533 151.668 7.36267 151.412 7.256C151.167 7.14933 150.879 7 150.548 6.808C150.228 6.60533 149.972 6.40267 149.78 6.2C149.588 5.98667 149.423 5.72533 149.284 5.416C149.156 5.096 149.092 4.74933 149.092 4.376C149.092 3.59733 149.401 2.94133 150.02 2.408C150.639 1.87467 151.476 1.608 152.532 1.608C153.396 1.608 154.116 1.79467 154.692 2.168C155.268 2.53067 155.641 3.01067 155.812 3.608L154.532 4.04C154.383 3.70933 154.127 3.43733 153.764 3.224C153.401 3.01067 152.959 2.904 152.436 2.904C151.849 2.904 151.385 3.03733 151.044 3.304C150.703 3.56 150.532 3.91733 150.532 4.376C150.532 4.62133 150.591 4.84533 150.708 5.048C150.836 5.25067 151.028 5.432 151.284 5.592C151.551 5.752 151.796 5.88 152.02 5.976C152.244 6.072 152.553 6.19467 152.948 6.344C153.439 6.52533 153.844 6.70133 154.164 6.872C154.484 7.032 154.831 7.25067 155.204 7.528C155.577 7.80533 155.86 8.152 156.052 8.568C156.244 8.97333 156.34 9.43733 156.34 9.96C156.34 10.9627 155.999 11.752 155.316 12.328C154.633 12.904 153.748 13.192 152.66 13.192Z" fill="black"/>
<path d="M6.35547 3.89063C6.64844 3.59766 7.12891 3.59766 7.42187 3.89063L11.1484 7.62891C11.4336 7.91406 11.4414 8.375 11.1719 8.66797L7.5 12.3516C7.35156 12.5 7.16016 12.5742 6.96484 12.5742C6.77344 12.5742 6.57812 12.5 6.43359 12.3555C6.14062 12.0625 6.13672 11.5859 6.43359 11.2891L9.55469 8.12109L6.35547 4.95313C6.05859 4.66406 6.05859 4.1875 6.35547 3.89063Z" fill="#0AA6BD"/>
<path d="M0 8C0 12.4192 3.58077 16 8 16C12.4192 16 16 12.4192 16 8C16 3.58077 12.4192 0 8 0C3.58077 0 0 3.58077 0 8ZM1.23077 8C1.23077 6.19231 1.93462 4.49231 3.21538 3.21538C4.49231 1.93462 6.19231 1.23077 8 1.23077C9.80769 1.23077 11.5077 1.93462 12.7846 3.21538C14.0654 4.49231 14.7692 6.19231 14.7692 8C14.7692 9.80769 14.0654 11.5077 12.7846 12.7846C11.5077 14.0654 9.80769 14.7692 8 14.7692C6.19231 14.7692 4.49231 14.0654 3.21538 12.7846C1.93462 11.5077 1.23077 9.80769 1.23077 8Z" fill="#0AA6BD"/>
</svg>
