<svg width="207" height="17" viewBox="0 0 207 17" fill="none" xmlns="http://www.w3.org/2000/svg">
<path d="M28.608 12L24.768 0.799999H26.256L28.928 8.896C29.12 9.54667 29.232 9.92533 29.264 10.032C29.3067 9.82933 29.4133 9.45067 29.584 8.896L32.176 0.799999H33.664L29.84 12H28.608ZM35.7563 12V0.799999H37.1483V12H35.7563ZM40.318 12V0.799999H46.974V2.112H41.71V5.552H45.182V6.864H41.71V10.672H47.326V12H40.318ZM51.2911 12L49.0031 0.799999H50.4591L51.8351 8.096C51.9311 8.576 52.0005 8.976 52.0431 9.296C52.0431 9.28533 52.1445 8.89067 52.3471 8.112L54.3311 0.799999H55.4351L57.4351 8.096C57.5631 8.576 57.6485 8.93867 57.6911 9.184C57.7338 8.90667 57.8031 8.53867 57.8991 8.08L59.4191 0.799999H60.8431L58.4111 12H57.3071L55.1471 4.352C54.9871 3.76533 54.8911 3.39733 54.8591 3.248C54.8058 3.536 54.7151 3.904 54.5871 4.352L52.4271 12H51.2911ZM76.3898 12H74.9978V5.12C74.9978 4.68267 75.0084 4.272 75.0298 3.888C74.9231 4.18667 74.7578 4.608 74.5338 5.152L71.4618 12.192L68.4858 5.12C68.2298 4.50133 68.0698 4.096 68.0058 3.904C68.0378 4.192 68.0538 4.59733 68.0538 5.12V12H66.6618V0.799999H67.9738L71.2218 8.336L71.5098 9.088C71.5524 8.96 71.6484 8.70933 71.7978 8.336L75.0618 0.799999H76.3898V12ZM83.7775 12.192C82.9348 12.192 82.1935 12.0267 81.5535 11.696C80.9242 11.3547 80.4282 10.9013 80.0655 10.336C79.7135 9.76 79.4522 9.14667 79.2815 8.496C79.1108 7.83467 79.0255 7.136 79.0255 6.4C79.0255 5.664 79.1108 4.97067 79.2815 4.32C79.4522 3.65867 79.7135 3.04533 80.0655 2.48C80.4282 1.904 80.9242 1.45067 81.5535 1.12C82.1935 0.778666 82.9348 0.608 83.7775 0.608C84.4602 0.608 85.0735 0.72 85.6175 0.943999C86.1722 1.168 86.6255 1.46667 86.9775 1.84C87.3402 2.21333 87.6388 2.656 87.8735 3.168C88.1188 3.68 88.2895 4.20267 88.3855 4.736C88.4922 5.26933 88.5455 5.824 88.5455 6.4C88.5455 6.976 88.4922 7.53067 88.3855 8.064C88.2895 8.59733 88.1188 9.12 87.8735 9.632C87.6388 10.144 87.3402 10.5867 86.9775 10.96C86.6255 11.3333 86.1722 11.632 85.6175 11.856C85.0735 12.08 84.4602 12.192 83.7775 12.192ZM82.2255 10.496C82.6735 10.752 83.1908 10.88 83.7775 10.88C84.3642 10.88 84.8815 10.7467 85.3295 10.48C85.7775 10.2027 86.1242 9.84 86.3695 9.392C86.6148 8.944 86.7962 8.46933 86.9135 7.968C87.0308 7.456 87.0895 6.93333 87.0895 6.4C87.0895 5.61067 86.9882 4.896 86.7855 4.256C86.5935 3.60533 86.2362 3.05067 85.7135 2.592C85.2015 2.13333 84.5562 1.904 83.7775 1.904C83.1908 1.904 82.6735 2.04267 82.2255 2.32C81.7882 2.58667 81.4468 2.94933 81.2015 3.408C80.9562 3.856 80.7695 4.33067 80.6415 4.832C80.5242 5.33333 80.4655 5.856 80.4655 6.4C80.4655 6.976 80.5242 7.52 80.6415 8.032C80.7588 8.544 80.9402 9.01867 81.1855 9.456C81.4415 9.89333 81.7882 10.24 82.2255 10.496ZM91.193 12V0.799999H95.609C96.8463 0.799999 97.7423 1.104 98.297 1.712C98.8623 2.32 99.145 3.07733 99.145 3.984C99.145 4.72 98.9263 5.38133 98.489 5.968C98.0623 6.544 97.4117 6.92267 96.537 7.104L98.937 12H97.369L95.065 7.2H92.585V12H91.193ZM92.585 5.904H95.641C96.3663 5.904 96.8943 5.72267 97.225 5.36C97.5663 4.99733 97.737 4.54933 97.737 4.016C97.737 3.504 97.5717 3.056 97.241 2.672C96.921 2.288 96.3877 2.096 95.641 2.096H92.585V5.904ZM101.834 12V0.799999H108.49V2.112H103.226V5.552H106.698V6.864H103.226V10.672H108.842V12H101.834ZM115.177 12V0.799999H119.593C120.831 0.799999 121.727 1.104 122.281 1.712C122.847 2.32 123.129 3.07733 123.129 3.984C123.129 4.72 122.911 5.38133 122.473 5.968C122.047 6.544 121.396 6.92267 120.521 7.104L122.921 12H121.353L119.049 7.2H116.569V12H115.177ZM116.569 5.904H119.625C120.351 5.904 120.879 5.72267 121.209 5.36C121.551 4.99733 121.721 4.54933 121.721 4.016C121.721 3.504 121.556 3.056 121.225 2.672C120.905 2.288 120.372 2.096 119.625 2.096H116.569V5.904ZM125.818 12V0.799999H132.474V2.112H127.21V5.552H130.682V6.864H127.21V10.672H132.826V12H125.818ZM138.66 12.192C137.711 12.192 136.884 11.9627 136.18 11.504C135.487 11.0347 135.012 10.432 134.756 9.696L136.068 9.216C136.303 9.728 136.649 10.1333 137.108 10.432C137.567 10.7307 138.095 10.88 138.692 10.88C139.375 10.88 139.913 10.72 140.308 10.4C140.703 10.0693 140.9 9.6 140.9 8.992C140.9 8.40533 140.676 7.936 140.228 7.584C139.791 7.232 139.172 6.912 138.372 6.624C137.988 6.48533 137.668 6.36267 137.412 6.256C137.167 6.14933 136.879 6 136.548 5.808C136.228 5.60533 135.972 5.40267 135.78 5.2C135.588 4.98667 135.423 4.72533 135.284 4.416C135.156 4.096 135.092 3.74933 135.092 3.376C135.092 2.59733 135.401 1.94133 136.02 1.408C136.639 0.874666 137.476 0.608 138.532 0.608C139.396 0.608 140.116 0.794666 140.692 1.168C141.268 1.53067 141.641 2.01067 141.812 2.608L140.532 3.04C140.383 2.70933 140.127 2.43733 139.764 2.224C139.401 2.01067 138.959 1.904 138.436 1.904C137.849 1.904 137.385 2.03733 137.044 2.304C136.703 2.56 136.532 2.91733 136.532 3.376C136.532 3.62133 136.591 3.84533 136.708 4.048C136.836 4.25067 137.028 4.432 137.284 4.592C137.551 4.752 137.796 4.88 138.02 4.976C138.244 5.072 138.553 5.19467 138.948 5.344C139.439 5.52533 139.844 5.70133 140.164 5.872C140.484 6.032 140.831 6.25067 141.204 6.528C141.577 6.80533 141.86 7.152 142.052 7.568C142.244 7.97333 142.34 8.43733 142.34 8.96C142.34 9.96267 141.999 10.752 141.316 11.328C140.633 11.904 139.748 12.192 138.66 12.192ZM149.246 12.192C148.404 12.192 147.662 12.0267 147.022 11.696C146.393 11.3547 145.897 10.9013 145.534 10.336C145.182 9.76 144.921 9.14667 144.75 8.496C144.58 7.83467 144.494 7.136 144.494 6.4C144.494 5.664 144.58 4.97067 144.75 4.32C144.921 3.65867 145.182 3.04533 145.534 2.48C145.897 1.904 146.393 1.45067 147.022 1.12C147.662 0.778666 148.404 0.608 149.246 0.608C149.929 0.608 150.542 0.72 151.086 0.943999C151.641 1.168 152.094 1.46667 152.446 1.84C152.809 2.21333 153.108 2.656 153.342 3.168C153.588 3.68 153.758 4.20267 153.854 4.736C153.961 5.26933 154.014 5.824 154.014 6.4C154.014 6.976 153.961 7.53067 153.854 8.064C153.758 8.59733 153.588 9.12 153.342 9.632C153.108 10.144 152.809 10.5867 152.446 10.96C152.094 11.3333 151.641 11.632 151.086 11.856C150.542 12.08 149.929 12.192 149.246 12.192ZM147.694 10.496C148.142 10.752 148.66 10.88 149.246 10.88C149.833 10.88 150.35 10.7467 150.798 10.48C151.246 10.2027 151.593 9.84 151.838 9.392C152.084 8.944 152.265 8.46933 152.382 7.968C152.5 7.456 152.558 6.93333 152.558 6.4C152.558 5.61067 152.457 4.896 152.254 4.256C152.062 3.60533 151.705 3.05067 151.182 2.592C150.67 2.13333 150.025 1.904 149.246 1.904C148.66 1.904 148.142 2.04267 147.694 2.32C147.257 2.58667 146.916 2.94933 146.67 3.408C146.425 3.856 146.238 4.33067 146.11 4.832C145.993 5.33333 145.934 5.856 145.934 6.4C145.934 6.976 145.993 7.52 146.11 8.032C146.228 8.544 146.409 9.01867 146.654 9.456C146.91 9.89333 147.257 10.24 147.694 10.496ZM160.598 12.192C157.92 12.192 156.582 10.7253 156.582 7.792V0.799999H157.974V7.792C157.974 8.93333 158.208 9.73333 158.678 10.192C159.147 10.6507 159.787 10.88 160.598 10.88C161.408 10.88 162.048 10.6507 162.518 10.192C162.998 9.73333 163.238 8.93333 163.238 7.792V0.799999H164.63V7.792C164.63 10.7253 163.286 12.192 160.598 12.192ZM167.693 12V0.799999H172.109C173.346 0.799999 174.242 1.104 174.797 1.712C175.362 2.32 175.645 3.07733 175.645 3.984C175.645 4.72 175.426 5.38133 174.989 5.968C174.562 6.544 173.912 6.92267 173.037 7.104L175.437 12H173.869L171.565 7.2H169.085V12H167.693ZM169.085 5.904H172.141C172.866 5.904 173.394 5.72267 173.725 5.36C174.066 4.99733 174.237 4.54933 174.237 4.016C174.237 3.504 174.072 3.056 173.741 2.672C173.421 2.288 172.888 2.096 172.141 2.096H169.085V5.904ZM182.494 12.192C181.683 12.192 180.968 12.0267 180.35 11.696C179.731 11.3653 179.246 10.9173 178.894 10.352C178.542 9.78667 178.28 9.17333 178.11 8.512C177.939 7.85067 177.854 7.14667 177.854 6.4C177.854 5.664 177.939 4.96533 178.11 4.304C178.291 3.632 178.558 3.01867 178.91 2.464C179.272 1.89867 179.758 1.45067 180.366 1.12C180.984 0.778666 181.694 0.608 182.494 0.608C184.243 0.608 185.448 1.28 186.11 2.624L184.862 3.264C184.563 2.816 184.232 2.48 183.87 2.256C183.518 2.02133 183.059 1.904 182.494 1.904C181.736 1.904 181.107 2.144 180.606 2.624C180.104 3.104 179.758 3.66933 179.566 4.32C179.384 4.96 179.294 5.65333 179.294 6.4C179.294 7.62667 179.566 8.68267 180.11 9.568C180.654 10.4427 181.448 10.88 182.494 10.88C183.539 10.88 184.35 10.4053 184.926 9.456L186.206 9.936C185.896 10.6187 185.432 11.168 184.814 11.584C184.195 11.9893 183.422 12.192 182.494 12.192ZM188.693 12V0.799999H195.349V2.112H190.085V5.552H193.557V6.864H190.085V10.672H195.701V12H188.693ZM201.535 12.192C200.586 12.192 199.759 11.9627 199.055 11.504C198.362 11.0347 197.887 10.432 197.631 9.696L198.943 9.216C199.178 9.728 199.524 10.1333 199.983 10.432C200.442 10.7307 200.97 10.88 201.567 10.88C202.25 10.88 202.788 10.72 203.183 10.4C203.578 10.0693 203.775 9.6 203.775 8.992C203.775 8.40533 203.551 7.936 203.103 7.584C202.666 7.232 202.047 6.912 201.247 6.624C200.863 6.48533 200.543 6.36267 200.287 6.256C200.042 6.14933 199.754 6 199.423 5.808C199.103 5.60533 198.847 5.40267 198.655 5.2C198.463 4.98667 198.298 4.72533 198.159 4.416C198.031 4.096 197.967 3.74933 197.967 3.376C197.967 2.59733 198.276 1.94133 198.895 1.408C199.514 0.874666 200.351 0.608 201.407 0.608C202.271 0.608 202.991 0.794666 203.567 1.168C204.143 1.53067 204.516 2.01067 204.687 2.608L203.407 3.04C203.258 2.70933 203.002 2.43733 202.639 2.224C202.276 2.01067 201.834 1.904 201.311 1.904C200.724 1.904 200.26 2.03733 199.919 2.304C199.578 2.56 199.407 2.91733 199.407 3.376C199.407 3.62133 199.466 3.84533 199.583 4.048C199.711 4.25067 199.903 4.432 200.159 4.592C200.426 4.752 200.671 4.88 200.895 4.976C201.119 5.072 201.428 5.19467 201.823 5.344C202.314 5.52533 202.719 5.70133 203.039 5.872C203.359 6.032 203.706 6.25067 204.079 6.528C204.452 6.80533 204.735 7.152 204.927 7.568C205.119 7.97333 205.215 8.43733 205.215 8.96C205.215 9.96267 204.874 10.752 204.191 11.328C203.508 11.904 202.623 12.192 201.535 12.192Z" fill="black"/>
<path d="M6.35547 4.89063C6.64844 4.59766 7.12891 4.59766 7.42187 4.89063L11.1484 8.62891C11.4336 8.91406 11.4414 9.375 11.1719 9.66797L7.5 13.3516C7.35156 13.5 7.16016 13.5742 6.96484 13.5742C6.77344 13.5742 6.57812 13.5 6.43359 13.3555C6.14062 13.0625 6.13672 12.5859 6.43359 12.2891L9.55469 9.12109L6.35547 5.95313C6.05859 5.66406 6.05859 5.1875 6.35547 4.89063Z" fill="#0AA6BD"/>
<path d="M0 9C0 13.4192 3.58077 17 8 17C12.4192 17 16 13.4192 16 9C16 4.58077 12.4192 1 8 1C3.58077 1 0 4.58077 0 9ZM1.23077 9C1.23077 7.19231 1.93462 5.49231 3.21538 4.21538C4.49231 2.93462 6.19231 2.23077 8 2.23077C9.80769 2.23077 11.5077 2.93462 12.7846 4.21538C14.0654 5.49231 14.7692 7.19231 14.7692 9C14.7692 10.8077 14.0654 12.5077 12.7846 13.7846C11.5077 15.0654 9.80769 15.7692 8 15.7692C6.19231 15.7692 4.49231 15.0654 3.21538 13.7846C1.93462 12.5077 1.23077 10.8077 1.23077 9Z" fill="#0AA6BD"/>
</svg>
