<svg width="21" height="15" viewBox="0 0 21 15" fill="none" xmlns="http://www.w3.org/2000/svg">
<path d="M1.192 13.96C1.864 13.3627 2.536 12.504 3.208 11.384C3.88 10.264 4.25333 9.06933 4.328 7.8C3.208 7.72533 2.27467 7.352 1.528 6.68C0.781333 6.008 0.408 5.14933 0.408 4.104C0.408 2.90933 0.762667 1.95733 1.472 1.248C2.21867 0.501332 3.11467 0.127999 4.16 0.127999C5.35467 0.127999 6.36267 0.557333 7.184 1.416C8.00533 2.23733 8.416 3.432 8.416 5C8.416 7.05333 7.89333 8.95733 6.848 10.712C5.80267 12.4293 4.45867 13.792 2.816 14.8L1.192 13.96ZM12.952 13.96C14.856 12.2427 15.8827 10.1893 16.032 7.8C14.9493 7.72533 14.016 7.352 13.232 6.68C12.4853 6.008 12.112 5.14933 12.112 4.104C12.112 2.90933 12.4853 1.95733 13.232 1.248C13.9787 0.501332 14.8747 0.127999 15.92 0.127999C17.0773 0.127999 18.0667 0.557333 18.888 1.416C19.7093 2.23733 20.12 3.432 20.12 5C20.12 7.05333 19.5973 8.95733 18.552 10.712C17.544 12.4293 16.2187 13.792 14.576 14.8L12.952 13.96Z" fill="white"/>
</svg>
